<svg width="276" height="299" viewBox="0 0 276 299" fill="none" xmlns="http://www.w3.org/2000/svg">
<path d="M53.343 28.2655C47.6516 35.6562 36.7429 44.2227 32 47.5821L68.8272 69.4183C73.2911 65.9189 83.8092 56.9045 90.1702 48.8419C96.5313 40.7793 101.748 25.0461 103.562 18.1873L65.4793 1.39026C63.8053 7.26922 59.0345 20.8748 53.343 28.2655Z" fill="white" stroke="#1730BD" stroke-opacity="0.5"/>
<path d="M69.0186 10.3903L80.5038 15.6911" stroke="#1730BD" stroke-opacity="0.5" stroke-miterlimit="16"/>
<path d="M67.0186 14.3903L77.6203 19.6911" stroke="#1730BD" stroke-opacity="0.5" stroke-miterlimit="16"/>
<path d="M64.6888 19.9432L89.4262 32.312" stroke="#1730BD" stroke-opacity="0.5" stroke-miterlimit="16"/>
<path d="M62.0383 25.2443L86.7758 38.4965" stroke="#1730BD" stroke-opacity="0.5" stroke-miterlimit="16"/>
<path d="M59.3879 30.5452L82.0275 42.9385" stroke="#1730BD" stroke-opacity="0.5" stroke-miterlimit="16"/>
<path d="M54.9705 35.8461L78.6357 49.2979" stroke="#1730BD" stroke-opacity="0.5" stroke-miterlimit="16"/>
<path d="M49.3824 41.2427L71.8524 54.3855" stroke="#1730BD" stroke-opacity="0.5" stroke-miterlimit="16"/>
<path d="M67.4488 55.6269C68.4339 55.962 69.2296 56.6286 69.6571 57.4702L69.2113 57.6967C69.3977 58.0637 69.5 58.4669 69.5 58.8903C69.5 59.3136 69.3977 59.7168 69.2113 60.0839L69.6571 60.3103C69.2296 61.1519 68.4339 61.8185 67.4488 62.1536L67.2878 61.6802C66.8904 61.8154 66.4562 61.8903 66 61.8903C65.5438 61.8903 65.1096 61.8154 64.7122 61.6802L64.5512 62.1536C63.5661 61.8185 62.7704 61.1519 62.3429 60.3103L62.7887 60.0839C62.6023 59.7168 62.5 59.3136 62.5 58.8903C62.5 58.4669 62.6023 58.0637 62.7887 57.6967L62.3429 57.4702C62.7704 56.6286 63.5661 55.962 64.5512 55.6269L64.7122 56.1003C65.1096 55.9651 65.5438 55.8903 66 55.8903C66.4562 55.8903 66.8904 55.9651 67.2878 56.1003L67.4488 55.6269Z" stroke="#1730BD" stroke-opacity="0.5" stroke-dasharray="2 2"/>
<path d="M90 23.8274H198.5V190.805H77.0472V42.195L90 23.8274Z" fill="#2A41C0" stroke="#1730BD" stroke-opacity="0.5"/>
<path d="M94.405 48.3903H132.562" stroke="white" stroke-width="0.883481" stroke-miterlimit="16"/>
<path d="M94.405 56.8695H130.978" stroke="white" stroke-width="0.883481" stroke-miterlimit="16"/>
<path d="M94.405 65.3488H121.793" stroke="white" stroke-width="0.883481" stroke-miterlimit="16"/>
<path d="M94.405 82.3071H103.24" stroke="white" stroke-width="0.883481" stroke-miterlimit="16"/>
<path d="M94.405 73.828H112.075" stroke="white" stroke-width="0.883481" stroke-miterlimit="16"/>
<path d="M173.754 37.851H199.257H203.027V217.89H69.4465V104.217L173.754 37.851Z" fill="white" stroke="#1730BD" stroke-opacity="0.5"/>
<path d="M31.1006 169.183C24.4116 184.569 8.10708 205.976 1 213.919L64.5457 234.406C68.7263 230.365 79.2615 218.602 87.9572 203.885C96.653 189.168 100.499 160.124 101.335 147.442L40.298 132.39C40.0193 138.244 37.7896 153.797 31.1006 169.183Z" fill="white" stroke="#1730BD" stroke-opacity="0.5"/>
<path d="M187.46 81.2693L189.923 64.0286L242.133 49.2509C243.282 54.6694 247.354 66.7871 252.477 77.8212C257.599 88.8552 275.627 107.048 284 114.766L222.431 133.977C216.356 129.543 206.275 121.268 200.759 111.81C195.376 102.581 189.868 88.2253 187.621 81.738C187.565 81.7155 187.55 81.6667 187.572 81.5951C187.534 81.4841 187.496 81.3754 187.46 81.2693Z" fill="white"/>
<path d="M189.923 64.0286L187.46 81.2693M189.923 64.0286L242.133 49.2509C243.282 54.6694 247.354 66.7871 252.477 77.8212C257.599 88.8552 275.627 107.048 284 114.766L222.431 133.977C216.356 129.543 206.275 121.268 200.759 111.81C195.242 102.352 189.594 87.5088 187.46 81.2693M189.923 64.0286C189.759 66.6558 190.317 72.5012 193.863 74.8656C194.848 75.5224 186.8 81.4096 187.621 81.738L187.46 81.2693" stroke="#1730BD" stroke-opacity="0.5"/>
<path d="M48.708 146.058L66.6402 151.085" stroke="#1730BD" stroke-opacity="0.5" stroke-width="0.883481"/>
<path d="M47.5619 152.357L65.4941 157.543" stroke="#1730BD" stroke-opacity="0.5" stroke-width="0.883481"/>
<path d="M44.2906 161.077L84.9308 172.562" stroke="#1730BD" stroke-opacity="0.5" stroke-width="0.883481"/>
<path d="M41.6401 169.029L81.9028 180.763" stroke="#1730BD" stroke-opacity="0.5" stroke-width="0.883481"/>
<path d="M37.8109 177.371L76.8153 188.818" stroke="#1730BD" stroke-opacity="0.5" stroke-width="0.883481"/>
<path d="M31.9219 188.465L72.1517 200.265" stroke="#1730BD" stroke-opacity="0.5" stroke-width="0.883481"/>
<path d="M26.3639 196.449L67.9121 209.168" stroke="#1730BD" stroke-opacity="0.5" stroke-width="0.883481"/>
<path d="M238.414 57.3903L223 62.1082" stroke="#1730BD" stroke-opacity="0.5" stroke-width="1.04089"/>
<path d="M240.87 64.3903L224 69.3594" stroke="#1730BD" stroke-opacity="0.5" stroke-width="1.04089"/>
<path d="M244.446 71.1095L204.892 82.5593" stroke="#1730BD" stroke-opacity="0.5" stroke-width="1.04089"/>
<path d="M248.61 78.3959L209.056 89.8457" stroke="#1730BD" stroke-opacity="0.5" stroke-width="1.04089"/>
<path d="M250.691 85.6823L212.178 97.1321" stroke="#1730BD" stroke-opacity="0.5" stroke-width="1.04089"/>
<path d="M256.5 95.8903L217.383 107.541" stroke="#1730BD" stroke-opacity="0.5" stroke-width="1.04089"/>
<path d="M263 103.39L222.017 115.965" stroke="#1730BD" stroke-opacity="0.5" stroke-width="1.04089"/>
<path d="M114.775 286.233C114.775 284.311 115.767 280.627 116.262 279.025C119.237 280.947 120.743 277.957 121.983 276.623C122.231 276.623 125.484 277.584 129.648 278.224C133.813 278.865 135.35 279.559 135.597 279.826C135.35 280.36 133.813 282.068 129.648 284.631C125.484 287.194 120.972 288.368 119.237 288.635C117.75 288.635 114.775 288.155 114.775 286.233Z" stroke="#1730BD" stroke-opacity="0.5" stroke-width="0.847923"/>
<path d="M109.97 199.74C107.407 193.333 107.3 183.723 107.567 179.719L145.208 176.515L147.61 204.545V232.575C147.61 242.186 142.805 267.813 141.203 276.623C139.602 285.432 136.398 285.432 133.996 285.432C131.593 285.432 130.792 274.22 130.792 269.415C130.792 264.61 130.792 256.601 131.593 243.787C132.234 233.536 131.326 222.965 130.792 218.961C130.525 222.698 129.831 231.614 129.191 237.38C128.55 243.147 126.788 252.063 125.987 255.8C125.453 263.542 123.424 279.185 119.58 279.826C115.736 280.467 114.775 272.084 114.775 267.813C113.974 264.61 112.853 254.199 114.775 238.181C117.178 218.16 113.173 207.749 109.97 199.74Z" fill="#EAEFF5" stroke="#1730BD" stroke-opacity="0.5"/>
<path d="M96.3558 145.379C96.9988 141.396 104.194 133.631 107.677 130.035L114.036 134.591L110.822 168.616C108.411 167.509 103.107 164.632 101.178 161.977C98.7668 158.657 95.5522 150.358 96.3558 145.379Z" fill="white" stroke="#1730BD" stroke-opacity="0.5"/>
<path d="M130.792 290.237C130.792 288.315 131.86 284.631 132.394 283.029C135.597 284.951 139.068 282.762 140.403 281.427C140.67 281.427 142.325 281.588 146.809 282.228C151.294 282.869 152.949 283.563 153.216 283.83C152.949 284.364 151.294 286.072 146.809 288.635C142.325 291.198 137.466 292.373 135.597 292.64C133.996 292.64 130.792 292.159 130.792 290.237Z" fill="white" stroke="#1730BD" stroke-opacity="0.5" stroke-width="0.847923"/>
<path d="M131.593 120.455C119.42 120.455 110.504 126.862 107.567 130.065C107.3 133.269 106.767 141.598 106.767 149.286C106.767 156.974 105.165 171.71 104.364 178.117C107.834 181.32 117.338 187.727 127.589 187.727C137.84 187.727 146.81 183.456 150.013 181.32C149.212 176.515 147.45 165.784 146.81 161.299C146.169 156.814 146.543 149.286 146.81 146.083C147.61 147.15 149.532 149.606 150.814 150.888C152.416 152.489 154.818 154.892 159.623 154.091C164.428 153.29 166.831 143.68 170.835 132.468C174.039 123.498 176.441 114.849 177.242 111.646L169.234 109.243L166.831 115.65L157.221 132.468C153.75 128.464 143.766 120.455 131.593 120.455Z" fill="white"/>
<path d="M157.221 132.468C153.75 128.464 143.766 120.455 131.593 120.455C119.42 120.455 110.504 126.862 107.567 130.065C107.3 133.269 106.767 141.598 106.767 149.286C106.767 156.974 105.165 171.71 104.364 178.117C107.834 181.32 117.338 187.727 127.589 187.727C137.84 187.727 146.81 183.456 150.013 181.32C149.212 176.515 147.45 165.784 146.81 161.299C146.169 156.814 146.543 149.286 146.81 146.083C147.61 147.15 149.532 149.606 150.814 150.888C152.416 152.489 154.818 154.892 159.623 154.091C164.428 153.29 166.831 143.68 170.835 132.468C174.039 123.498 176.441 114.849 177.242 111.646L169.234 109.243L166.831 115.65L157.221 132.468ZM157.221 132.468L161.225 142.078" stroke="#1730BD" stroke-opacity="0.5"/>
<path d="M133.231 117.093C131.639 117.731 132.568 119.486 133.231 120.284L124.635 121.132C123.308 116.345 121.089 104.486 124.274 101.933C127.459 99.3801 132.236 99.8057 134.227 100.338C134.89 101.135 136.416 103.05 137.212 104.327C138.208 105.923 140.198 110.71 139.203 114.699C138.208 118.688 135.222 116.295 133.231 117.093Z" fill="white" stroke="#1730BD" stroke-opacity="0.5" stroke-width="0.847923"/>
<path d="M133.996 106.04C135.918 104.758 136.398 102.836 136.398 102.035C134.476 94.9878 127.055 97.4972 123.585 99.6328C121.716 100.968 117.202 104.974 119.124 111.381C121.526 119.39 125.577 118.164 127.179 118.164C128.781 118.164 131.593 111.646 130.792 110.845C129.991 110.044 131.593 107.641 133.996 106.04Z" fill="#EAEFF5" stroke="#1730BD" stroke-opacity="0.5"/>
<path d="M172.437 101.234C171.156 103.156 169.842 107.392 169.575 109.261L176.359 111.381C176.626 110.58 177.242 107.962 177.242 106.04C177.242 104.118 176.174 103.103 175.64 102.836C175.907 101.234 176.281 98.031 175.64 98.031C174.84 98.031 174.039 98.8319 172.437 101.234Z" fill="white" stroke="#1730BD" stroke-opacity="0.5" stroke-width="0.847923"/>
<path d="M191.22 210.179C190.016 210.939 189 213.045 189 213.679C192.177 219.541 191.895 229.611 192.296 230.371C192.698 231.132 212.197 237.026 221.896 239.878L241.462 221.34L242.465 204.702C241.796 197.255 240.157 181.886 238.953 179.984C237.749 178.083 234.773 177.291 233.435 177.132C213.22 151.179 205.22 175.374 219.22 183.679C220.528 184.455 208.72 206.179 198.22 202.679L189.5 198.179L182.263 193.179L179 191.179L175.22 190.679V193.679L178.72 197.679L195.22 208.179C193.882 208.813 192.424 209.418 191.22 210.179Z" fill="white"/>
<path d="M231.565 176.652L231.291 174.83C232.359 172.06 232.388 162.364 225.676 159.643C218.964 156.922 213.908 160.29 212.949 163.789C212.182 166.588 213.624 168.285 214.44 168.784C214.597 169.009 215.039 169.812 215.548 171.227C216.057 172.642 218.059 173.957 218.996 174.437C219.128 173.672 219.778 172.233 221.316 172.598C222.854 172.964 223.47 176.251 223.587 177.849C224.246 178.123 226.082 178.667 228.157 178.655C230.231 178.642 231.293 177.314 231.565 176.652Z" fill="#2A41C0" stroke="#2A41C0"/>
<path d="M246.021 204.266L240.052 207.745L238.589 193.284C237.459 188.833 237.556 186.167 235.678 184.043C232.633 180.601 230.368 181.605 230.368 181.605C229.877 183.622 227.227 185.311 224.063 185.786C221.302 186.2 219.461 186.476 218.523 185.741L214.558 191.299C211.914 195.172 205.631 202.921 201.643 202.938C200.415 202.943 198.841 202.536 197.151 201.907C194.835 201.045 192.304 199.766 190.157 198.559C188.78 197.783 187.561 197.038 186.659 196.451L183.185 200.495L189.187 205.004C191.682 206.879 194.175 207.97 196.182 208.768C193.856 208.857 189.107 209.941 188.723 213.569C184.268 214.489 181.662 234.251 180.871 243.825L180.067 248.362L176.392 245.859C175.558 245.19 173.593 244.258 172.403 245.875C170.916 247.896 174.416 250.446 176.416 251.701L172.441 254.942L182.438 261.342L189.895 255.878L189.913 260.411C188.415 259.914 187.709 260.252 187.42 260.421L184.936 262.447C183.444 263.46 183.459 266.986 185.465 270C187.377 272.872 189.973 275.019 192.462 274.001L193.457 273.494L195.937 270.461C196.432 269.452 195.811 266.797 193.916 263.921C193.102 262.685 192.173 261.851 191.413 261.305L191.382 253.918L193.942 251.629C194.21 255.871 195.156 259.935 195.906 262.905C197.934 270.937 203.449 278.49 207.456 283.007C211.463 287.524 216.965 291.852 223.45 292.512C227.914 292.966 233.913 290.958 237.382 285.906C240.158 281.865 241.332 276.319 240.814 271.788C241.148 272.122 242.815 273.291 246.812 275.289C250.808 277.288 254.796 277.103 256.291 276.761C260.112 276.578 267.743 273.087 267.666 254.55C267.597 237.633 253.24 221.867 246.077 217.867L246.021 204.266Z" fill="white"/>
<path d="M246.102 223.912L246.077 217.867M246.102 223.912C246.93 223.908 252.517 228.277 257.122 235.452M246.102 223.912L244.361 225.041M246.102 223.912L246.158 237.512M246.021 204.266L245.971 192.177C246.133 191.001 247.254 188.948 250.45 190.144C253.646 191.34 253.781 191.977 253.45 192.146L265.448 200.157L267.428 196.622L255.932 189.617C255.767 189.786 255.236 190.023 254.437 189.624C253.437 189.124 250.936 187.119 247.945 187.132C245.552 187.141 244.296 188.826 243.967 189.667L244.031 205.282M246.021 204.266L240.052 207.745M246.021 204.266L246.077 217.867M235.576 210.354L240.052 207.745M223.722 237.604L242.621 226.17M240.052 207.745L238.589 193.284C237.459 188.833 237.556 186.167 235.678 184.043C232.633 180.601 230.368 181.605 230.368 181.605M230.368 181.605C229.877 183.622 227.227 185.311 224.063 185.786C221.302 186.2 219.461 186.476 218.523 185.741M230.368 181.605C229.985 181.297 229.12 180.179 228.72 178.179M218.523 185.741L214.558 191.299M218.523 185.741C218.749 185.359 219.014 184.781 219.124 184.228C219.256 183.565 219.164 182.936 218.511 182.719C217.412 182.354 215.239 181.722 213.957 180.219C213.492 179.673 213.144 179.013 213.008 178.208C212.599 175.792 212.853 168.917 213.013 167.573M214.558 191.299C216.221 191.628 219.452 193.294 219.07 197.325C218.648 201.774 216.665 204.546 213.126 206.93M214.558 191.299C211.914 195.172 205.631 202.921 201.643 202.938C200.415 202.943 198.841 202.536 197.151 201.907C194.835 201.045 192.304 199.766 190.157 198.559C188.78 197.783 187.561 197.038 186.659 196.451L183.185 200.495C183.852 200.996 185.986 202.599 189.187 205.004C191.682 206.879 194.175 207.97 196.182 208.768M216.194 225.546L216.18 222.02M216.18 222.02L216.134 210.938C216.121 207.843 216.304 203.683 219.092 202.866C221.881 202.048 225.914 204.853 227.582 206.357L229.577 206.349L240.075 213.358L237.597 216.894L232.096 212.887M216.18 222.02L218.666 220.498M232.096 212.887L226.598 209.384L226.591 207.8C224.924 206.512 221.156 204.195 219.601 205.382C217.613 206.902 218.484 216.494 218.666 220.498M232.096 212.887L218.666 220.498M213.126 206.93C212.656 207.246 212.159 207.556 211.634 207.862C209.925 208.858 207.996 209.551 206.154 209.971M213.126 206.93L213.147 211.958M213.197 224.047L218.695 227.55L218.704 229.565L216.204 228.064M213.197 224.047C209.531 221.711 202.201 217.544 197.704 215.043C193.481 212.696 190.229 216.082 189.739 218.099L189.82 237.744M213.197 224.047L213.147 211.958M189.913 260.411L191.413 261.305L191.269 226.381M189.913 260.411C190.13 260.556 192.261 261.409 193.916 263.921C195.811 266.797 196.432 269.452 195.937 270.461L193.457 273.494M189.913 260.411C188.415 259.914 187.709 260.252 187.42 260.421L184.936 262.447M189.913 260.411L189.895 255.878M246.077 217.867C253.24 221.867 267.597 237.633 267.666 254.55C267.743 273.087 260.112 276.578 256.291 276.761C254.796 277.103 250.808 277.288 246.812 275.289C242.815 273.291 241.148 272.122 240.814 271.788M240.814 271.788C241.332 276.319 240.158 281.865 237.382 285.906C233.913 290.958 227.914 292.966 223.45 292.512C216.965 291.852 211.463 287.524 207.456 283.007C203.449 278.49 197.934 270.937 195.906 262.905C195.156 259.935 194.21 255.871 193.942 251.629M240.814 271.788C240.81 270.723 240.629 268.982 240.151 266.753M216.225 233.102C219.298 234.81 222.816 235.977 227.175 240.909M216.225 233.102L216.204 228.064M216.225 233.102C212.767 231.179 205.392 229.589 200.498 231.98M240.151 266.753C241.326 267.908 243.36 269.509 245.796 270.74M240.151 266.753C239.318 262.866 237.296 256.502 234.249 251.463M258.752 269.195C258.352 268.794 251.217 255.29 247.699 248.588M247.699 248.588C246.703 248.76 244.308 248.4 242.701 245.586M247.699 248.588C248.363 248.316 250.183 246.563 248.671 242.539C247.405 239.169 244.666 238.526 243.669 238.53M247.699 248.588L250.188 247.57C250.85 246.873 251.771 244.63 250.162 241.239M245.705 248.596L245.796 270.74M245.796 270.74C248.648 272.181 252.051 273.115 255.275 272.232C261.251 270.595 263.047 262.797 263.198 259.102C263.339 258.277 263.444 257.061 263.436 255.575M263.436 255.575C263.416 251.921 262.707 246.631 260.134 241.484C259.366 239.949 258.063 236.919 257.122 235.452M263.436 255.575L249.689 247.572M257.122 235.452L250.162 241.239M250.162 241.239C248.653 238.06 246.158 237.512 246.158 237.512M246.158 237.512L243.669 238.53M242.621 226.17C241.89 227.995 240.447 230.959 238.626 233.513M242.621 226.17L244.361 225.041M233.696 238.067C229.714 239.695 227.838 240.559 227.175 240.909M233.696 238.067L241.693 243.071M233.696 238.067C235.467 237.343 237.168 235.559 238.626 233.513M227.175 240.909C229.195 243.195 231.272 246.163 233.797 250.673C233.95 250.947 234.085 251.191 234.249 251.463M238.626 233.513L242.674 239.038M242.674 239.038C242.013 239.88 241.094 242.772 242.701 245.586M242.674 239.038L243.669 238.53M244.361 225.041L244.166 238.024L243.669 238.53M242.701 245.586L234.249 251.463M216.204 228.064L201.21 219.059C200.21 218.391 197.811 216.957 196.214 216.561C194.218 216.065 192.228 217.081 191.735 218.594C191.342 219.805 191.249 221.618 191.251 222.122L191.269 226.381M200.498 231.98C199.028 232.698 198.394 233.426 197.18 234.767C193.714 238.592 193.568 245.723 193.942 251.629M200.498 231.98L191.269 226.381M212.673 218.004C206.516 216.015 196.196 212.027 188.723 213.569M188.723 213.569C184.268 214.489 181.662 234.251 180.871 243.825M188.723 213.569C189.107 209.941 193.856 208.857 196.182 208.768M180.871 243.825L184.369 245.826M180.871 243.825L180.067 248.362M184.369 245.826L189.82 237.744M184.369 245.826L183.742 250.866M189.82 237.744L189.895 255.878M213.147 211.958L206.154 209.971M206.154 209.971C203.171 210.652 200.414 210.618 199.179 210C198.427 209.624 197.393 209.249 196.182 208.768M216.742 237.633L216.757 241.159M216.742 237.633C214.418 236.299 208.997 234.108 204.765 234.736M216.742 237.633C218.212 238.611 219.02 238.998 220.242 239.951M216.813 254.76L214.823 255.775M216.813 254.76L216.78 246.7M216.813 254.76C220.801 254.743 222.326 261.789 221.335 263.304M214.823 255.775L206.669 243.215M214.823 255.775C215.652 255.436 217.614 255.663 218.826 259.285C220.037 262.907 218.848 264.658 218.102 265.081M214.823 255.775C213.231 256.588 212.835 257.462 212.837 257.798M201.777 235.68L203.082 237.689M201.777 235.68C202.696 235.193 203.709 234.892 204.765 234.736M201.777 235.68C197.799 238.215 196.149 249.303 199.382 259.365C202.614 269.426 206.861 275.453 206.861 275.453C210.122 279.987 219.456 291.366 229.91 287.372C230.968 286.895 231.87 286.231 232.394 285.323C234.374 281.889 236.513 278.354 235.829 271.808M235.829 271.808L221.335 263.304M235.829 271.808C235.901 270.549 235.765 268.235 235.145 265.262M221.335 263.304L219.345 264.32M219.345 264.32L232.397 285.927M219.345 264.32L218.102 265.081M216.856 265.338C216.887 272.894 216.948 287.602 216.941 285.99C216.935 284.378 216.882 271.55 216.856 265.338ZM216.856 265.338L218.102 265.081M216.856 265.338C216.025 265.341 214.661 264.843 213.855 262.831M213.855 262.831L203.412 269.423M213.855 262.831L212.837 257.798M212.837 257.798L197.843 248.793L206.669 243.215M206.669 243.215L203.082 237.689M230.08 253.265L220.866 258.269M230.08 253.265C232.429 257.752 234.442 261.893 235.145 265.262M230.08 253.265C228.98 251.211 226.75 246.112 222.744 242.142M216.78 246.7L203.082 237.689M216.78 246.7L216.757 241.159M216.78 246.7L223.134 243.651M235.145 265.262C232.301 262.553 225.969 253.874 223.134 243.651M222.744 242.142C221.936 241.342 221.111 240.63 220.242 239.951M222.744 242.142C222.865 242.648 222.995 243.152 223.134 243.651M216.757 241.159L204.765 234.736M216.757 241.159L220.242 239.951M184.936 262.447C185.93 261.771 188.718 260.819 191.928 265.44C194.393 268.989 194.514 272.201 193.457 273.494M184.936 262.447C183.444 263.46 183.459 266.986 185.465 270C187.377 272.871 189.973 275.019 192.462 274.001C192.923 273.766 193.457 273.494 193.457 273.494M182.438 261.342L172.441 254.942L176.416 251.701M182.438 261.342L183.115 255.906M182.438 261.342L189.895 255.878M176.416 251.701L183.115 255.906M176.416 251.701C174.416 250.446 170.916 247.896 172.403 245.875C173.593 244.258 175.558 245.19 176.392 245.859L180.067 248.362M183.115 255.906L183.742 250.866M183.742 250.866L180.067 248.362M193.942 251.629L190.885 254.362" stroke="#1730BD" stroke-opacity="0.5"/>
<path d="M183.481 200.742C180.427 199.079 174.5 194.93 175.218 191.636C175.935 188.343 183.147 193.584 186.663 196.616" stroke="#1730BD" stroke-opacity="0.5"/>
<path d="M187 89.8903C173.5 96.3903 164 85.6746 164 77.3904C163 67.3904 175.5 57.8903 186 64.3904" stroke="#1730BD" stroke-opacity="0.5" stroke-dasharray="2 2"/>
<path d="M62.8363 214.963C63.3295 215.617 63.6856 216.365 63.866 217.172L63.378 217.281C63.4579 217.639 63.5 218.01 63.5 218.39C63.5 218.771 63.4579 219.141 63.378 219.499L63.866 219.608C63.6856 220.416 63.3295 221.164 62.8363 221.817L62.4372 221.516C61.9909 222.107 61.4202 222.616 60.7579 223.009L61.0133 223.439C60.3272 223.847 59.5526 224.139 58.722 224.284L58.6355 223.792C58.2682 223.856 57.8887 223.89 57.5 223.89C57.1113 223.89 56.7318 223.856 56.3645 223.792L56.278 224.284C55.4474 224.139 54.6728 223.847 53.9867 223.439L54.2421 223.009C53.5798 222.616 53.0091 222.107 52.5628 221.516L52.1637 221.817C51.6705 221.164 51.3144 220.416 51.134 219.608L51.622 219.499C51.5421 219.141 51.5 218.771 51.5 218.39C51.5 218.01 51.5421 217.639 51.622 217.281L51.134 217.172C51.3144 216.365 51.6705 215.617 52.1637 214.963L52.5628 215.265C53.0091 214.674 53.5798 214.165 54.2421 213.771L53.9867 213.341C54.6728 212.934 55.4474 212.642 56.278 212.496L56.3645 212.989C56.7318 212.924 57.1113 212.89 57.5 212.89C57.8887 212.89 58.2682 212.924 58.6355 212.989L58.722 212.496C59.5526 212.642 60.3272 212.934 61.0133 213.341L60.7579 213.771C61.4202 214.165 61.9909 214.674 62.4372 215.265L62.8363 214.963Z" stroke="#1730BD" stroke-opacity="0.5" stroke-dasharray="2 2"/>
<path d="M267.087 109.298C267.473 109.79 267.752 110.355 267.894 110.965L267.407 111.078C267.468 111.34 267.5 111.612 267.5 111.89C267.5 112.169 267.468 112.441 267.407 112.703L267.894 112.816C267.752 113.426 267.473 113.991 267.087 114.483L266.694 114.174C266.358 114.602 265.93 114.971 265.431 115.256L265.679 115.69C265.154 115.991 264.563 116.205 263.929 116.313L263.846 115.82C263.572 115.866 263.29 115.89 263 115.89C262.71 115.89 262.428 115.866 262.154 115.82L262.071 116.313C261.437 116.205 260.846 115.991 260.321 115.69L260.569 115.256C260.07 114.971 259.642 114.602 259.306 114.174L258.913 114.483C258.527 113.991 258.248 113.426 258.106 112.816L258.593 112.703C258.532 112.441 258.5 112.169 258.5 111.89C258.5 111.612 258.532 111.34 258.593 111.078L258.106 110.965C258.248 110.355 258.527 109.79 258.913 109.298L259.306 109.606C259.642 109.179 260.07 108.809 260.569 108.524L260.321 108.09C260.846 107.79 261.437 107.575 262.071 107.468L262.154 107.961C262.428 107.915 262.71 107.89 263 107.89C263.29 107.89 263.572 107.915 263.846 107.961L263.929 107.468C264.563 107.575 265.154 107.79 265.679 108.09L265.431 108.524C265.93 108.809 266.358 109.179 266.694 109.606L267.087 109.298Z" stroke="#1730BD" stroke-opacity="0.5" stroke-dasharray="2 2"/>
</svg>
