<svg width="301" height="337" viewBox="0 0 301 337" fill="none" xmlns="http://www.w3.org/2000/svg">
<path d="M102.277 41.2397L99.7876 89.7079L93.5652 93.5094L87.6541 89.7079L84.854 45.9915C84.9577 43.9852 86.0363 39.4024 89.5208 37.1215C93.0053 34.8406 94.9134 35.3264 95.432 35.8544L100.721 39.5408C101.652 39.943 102.126 40.676 102.277 41.2397Z" fill="#EAEFF5"/>
<path d="M101.654 101.746C101.343 105.547 99.7876 108.082 97.9209 110.299C96.1926 112.352 93.1307 113.047 91.6986 111.379L86.4096 108.398C84.5429 107.448 84.8849 102.332 87.343 98.5779C89.8319 94.7765 93.0467 94.7765 94.1875 95.0933L100.099 98.2553C100.983 98.7064 101.82 99.7201 101.654 101.746Z" fill="#EAEFF5"/>
<path d="M93.5652 93.5094L91.0763 48.8426C90.9726 46.6251 91.823 41.7466 96.0542 39.9726C98.2317 39.0596 99.7336 39.1143 100.721 39.5408M93.5652 93.5094L99.7876 89.7079L102.277 41.2397C102.126 40.676 101.652 39.943 100.721 39.5408M93.5652 93.5094L87.6541 89.7079L84.854 45.9915C84.9577 43.9852 86.0363 39.4024 89.5208 37.1215C93.0053 34.8406 94.9134 35.3264 95.432 35.8544L100.721 39.5408M91.6986 111.379C93.1307 113.047 96.1926 112.352 97.9209 110.299C99.7876 108.082 101.343 105.547 101.654 101.746C101.82 99.7201 100.983 98.7064 100.099 98.2553M91.6986 111.379C91.5839 111.246 91.4797 111.097 91.3875 110.933C90.7652 109.349 90.8098 105.792 92.943 102.063C95.1209 98.2553 98.0246 97.9444 98.8542 97.9444C99.2005 97.9444 99.6555 98.0291 100.099 98.2553M91.6986 111.379L86.4096 108.398C84.5429 107.448 84.8849 102.332 87.343 98.5779C89.8319 94.7765 93.0467 94.7765 94.1875 95.0933L100.099 98.2553" stroke="#1730BD" stroke-opacity="0.5"/>
<path d="M23.1696 249.377V243.127M23.1696 249.377C22.3135 249.377 16.5544 253.919 11.8232 261.357M23.1696 249.377L24.9741 250.537M23.1696 249.377V263.441M23.1696 229.063V216.562C22.9978 215.346 21.8292 213.228 18.5297 214.478C15.2303 215.728 15.0928 216.388 15.4365 216.562L3.06343 224.896L1.00125 221.25L12.8588 213.957C13.0306 214.131 13.5805 214.374 14.4054 213.957C15.4365 213.437 18.0142 211.353 21.1075 211.353C23.5821 211.353 24.8881 213.089 25.2318 213.957V230.105M23.1696 229.063L29.3562 232.635M23.1696 229.063V243.127M33.9961 235.313L29.3562 232.635M46.3692 263.441L26.7785 251.697M29.3562 232.635V215.52C29.1843 213.957 29.3562 210.311 31.4184 208.228C33.4805 206.144 35.0272 205.276 35.5427 205.102L41.2137 206.665C41.7293 208.749 43.4821 212.916 46.3692 212.916C49.2562 212.916 51.009 210.832 51.5246 209.79M51.5246 209.79L55.649 215.52M51.5246 209.79C51.2901 209.396 51.0129 208.799 50.8969 208.228M55.649 215.52C53.9305 215.867 50.5966 217.604 51.0091 221.771C51.4642 226.369 53.5263 229.227 57.1956 231.677M55.649 215.52C58.3985 219.513 64.9288 227.5 69.0531 227.5C70.322 227.5 71.9487 227.073 73.693 226.416M54.1023 250.94V247.294M54.1023 247.294V235.834C54.1023 232.635 53.8961 228.334 51.0091 227.5C48.122 226.667 43.9633 229.584 42.2448 231.146H40.1826L29.3562 238.439L31.9339 242.085L37.6049 237.918M54.1023 247.294L51.5246 245.731M37.6049 237.918L43.2759 234.272V232.635C44.9944 231.295 48.8812 228.883 50.4935 230.105C52.5557 231.667 51.6964 241.59 51.5246 245.731M37.6049 237.918L51.5246 245.731M56.4435 193.308C56.6154 194.697 57.608 199.477 57.1956 201.977C57.0583 202.81 56.7014 203.494 56.2226 204.061M50.8969 208.228C50.7578 207.543 50.8501 206.892 51.5246 206.665C52.6592 206.283 54.9038 205.621 56.2226 204.061M50.8969 208.228L73.693 226.416M73.693 226.416C76.084 225.515 78.6961 224.181 80.9106 222.923M80.9106 222.923C82.3318 222.116 83.5893 221.34 84.5194 220.729L88.1283 224.896C87.4409 225.417 85.2412 227.084 81.9417 229.584C79.369 231.533 76.7963 232.672 74.7241 233.506M80.9106 222.923L56.2226 204.061M57.1956 231.677C57.6828 232.003 58.1983 232.321 58.7422 232.635C60.514 233.658 62.5113 234.366 64.4183 234.793M57.1956 231.677V236.876M57.1956 249.377L51.5246 253.023V255.107L54.1023 253.544M57.1956 249.377C60.9762 246.946 68.5376 242.606 73.1775 240.001C77.5338 237.556 80.9106 241.043 81.4262 243.127V263.441M57.1956 249.377V236.876M81.4262 286.88L79.8795 287.811V251.697M81.4262 286.88C81.2021 287.031 79.0025 287.922 77.3018 290.526C75.3543 293.509 74.7241 296.256 75.2396 297.298L77.8174 300.423M81.4262 286.88C82.9728 286.359 83.7046 286.707 84.0039 286.88L86.5816 288.964M81.4262 286.88V282.192M23.1696 243.127C15.7802 247.294 1.00125 263.657 1.00125 281.151C1.00125 300.319 8.90626 303.896 12.8588 304.069C14.4054 304.417 18.5298 304.59 22.6541 302.507C26.7785 300.423 28.497 299.208 28.8406 298.86M28.8406 298.86C28.3251 303.548 29.5624 309.278 32.4495 313.445C36.0583 318.654 42.2706 320.705 46.8847 320.216C53.5868 319.506 59.2578 315.008 63.3821 310.32C67.5065 305.632 73.1775 297.798 75.2396 289.485C76.0024 286.41 76.9638 282.204 77.2233 277.816M28.8406 298.86C28.8406 297.759 29.0199 295.959 29.5049 293.652M54.1023 258.753C50.932 260.532 47.2991 261.754 42.8132 266.872M54.1023 258.753V253.544M54.1023 258.753C57.6705 256.75 65.2897 255.075 70.3599 257.526M29.5049 293.652C28.2946 294.851 26.1987 296.515 23.6852 297.798M29.5049 293.652C30.3504 289.629 32.4135 283.04 35.5427 277.816M10.281 296.256C10.6935 295.839 18.0142 281.845 21.623 274.9M21.623 274.9C22.6541 275.074 25.1287 274.692 26.7785 271.775M21.623 274.9C20.9354 274.622 19.0453 272.817 20.5919 268.65C21.8872 265.16 24.7163 264.483 25.7474 264.483M21.623 274.9L19.0453 273.858C18.3579 273.14 17.3956 270.825 19.0453 267.312M23.6852 274.9V297.798M23.6852 297.798C20.7422 299.3 17.2266 300.28 13.8899 299.381C7.70333 297.715 5.813 289.658 5.64115 285.839C5.49213 284.985 5.37757 283.729 5.37965 282.192M5.37965 282.192C5.38475 278.413 6.09544 272.94 8.73442 267.608C9.52188 266.017 10.8561 262.878 11.8232 261.357M5.37965 282.192L19.5608 273.858M11.8232 261.357L19.0453 267.312M19.0453 267.312C20.5919 264.018 23.1696 263.441 23.1696 263.441M23.1696 263.441L25.7474 264.483M26.7785 251.697C27.5418 253.582 29.0467 256.64 30.9403 259.274M26.7785 251.697L24.9741 250.537M36.0583 263.962C40.1826 265.628 42.1258 266.514 42.8132 266.872M36.0583 263.962L27.8096 269.17M36.0583 263.962C34.2238 263.22 32.4573 261.383 30.9403 259.274M42.8132 266.872C40.7338 269.245 38.8342 272.649 36.0583 276.984C35.8833 277.257 35.7115 277.535 35.5427 277.816M30.9403 259.274L26.7785 265.003M26.7785 265.003C27.4659 265.872 28.4282 268.858 26.7785 271.775M26.7785 265.003L25.7474 264.483M24.9741 250.537L25.2318 263.962L25.7474 264.483M26.7785 271.775L35.5427 277.816M54.1023 253.544L69.5686 244.168C70.5997 243.474 73.0743 241.981 74.7241 241.564C76.7863 241.043 78.8484 242.085 79.364 243.647C79.7764 244.898 79.8795 246.773 79.8795 247.294V251.697M70.3599 257.526C71.8828 258.262 72.5417 259.013 73.8033 260.394C77.4035 264.334 77.5844 271.708 77.2233 277.816M70.3599 257.526L79.8795 251.697M57.7111 243.127C64.0695 241.043 74.7241 236.876 82.4573 238.439M82.4573 238.439C87.0684 239.37 89.8467 259.795 90.706 269.691M82.4573 238.439C82.0448 234.688 77.13 233.587 74.7241 233.506M90.706 269.691L87.0972 271.775M90.706 269.691L91.5564 274.379M87.0972 271.775L81.4262 263.441M87.0972 271.775L87.767 276.984M81.4262 263.441V282.192M57.1956 236.876L64.4183 234.793M64.4183 234.793C67.5054 235.483 70.3561 235.436 71.6308 234.793C72.4066 234.401 73.4743 234.009 74.7241 233.506M53.5868 263.441V267.087M53.5868 263.441C55.9847 262.051 61.5812 259.763 65.9598 260.394M53.5868 263.441C52.0716 264.458 51.2374 264.862 49.978 265.853M53.5868 281.151L55.649 282.192M53.5868 281.151V272.817M53.5868 281.151C49.1212 281.151 47.5 287.89 48.9469 290.006M55.649 282.192L64.0266 269.17M55.649 282.192C54.7897 281.845 52.7619 282.088 51.5246 285.839C50.2873 289.589 51.5246 291.395 52.2979 291.829M55.649 282.192C57 282.39 57.5 283.39 57.7111 284.276M69.0531 261.357L67.7127 263.441M69.0531 261.357C68.1008 260.858 67.0522 260.551 65.9598 260.394M69.0531 261.357C73.1775 263.962 74.9303 275.421 71.6308 285.839C68.3313 296.256 63.9652 302.507 63.9652 302.507C60.613 307.209 51.0091 319.014 40.1826 314.929C39.0867 314.44 38.1504 313.758 37.6049 312.821C35.5427 309.278 33.3168 305.632 33.9961 298.86M33.9961 298.86L48.9469 290.006M33.9961 298.86C33.9155 297.558 34.0464 295.165 34.6754 292.089M48.9469 290.006L51.0091 291.047M51.0091 291.047L37.6049 313.445M51.0091 291.047L52.2979 291.829M53.5868 292.089C53.5868 299.902 53.5868 315.112 53.5868 313.445C53.5868 311.778 53.5868 298.513 53.5868 292.089ZM53.5868 292.089L52.2979 291.829M53.5868 292.089C54.446 292.089 55.5 291.39 56.68 289.485M56.68 289.485L67.5065 296.256M56.68 289.485L57.5 287.39L57.7111 286.108V284.276M57.7111 284.276L73.1775 274.9L64.0266 269.17M64.0266 269.17L67.7127 263.441M39.8618 279.662L49 284.39M39.8618 279.662C37.4515 284.311 35.3883 288.602 34.6754 292.089M39.8618 279.662C40.9901 277.533 43.2749 272.251 47.4002 268.129M53.5868 272.817L67.7127 263.441M53.5868 272.817V267.087M53.5868 272.817L47.0035 269.691M34.6754 292.089C37.6048 289.275 44.1151 280.274 47.0035 269.691M47.4002 268.129C48.2319 267.298 49.0821 266.558 49.978 265.853M47.4002 268.129C47.2772 268.653 47.1447 269.174 47.0035 269.691M53.5868 267.087L65.9598 260.394M53.5868 267.087L49.978 265.853M86.5816 288.964C85.5505 288.269 82.6635 287.297 79.364 292.089C76.8298 295.77 76.7188 299.091 77.8174 300.423M86.5816 288.964C88.1282 290.006 88.1282 293.652 86.0661 296.777C84.1017 299.754 81.4262 301.986 78.8484 300.944C78.3701 300.702 77.8174 300.423 77.8174 300.423M89.1593 287.811L99.4702 281.151L95.3459 277.816M89.1593 287.811L88.4368 282.192M89.1593 287.811L81.4262 282.192M95.3459 277.816L88.4368 282.192M95.3459 277.816C97.408 276.51 101.017 273.858 99.4702 271.775C98.2329 270.108 96.2051 271.08 95.3459 271.775L91.5564 274.379M88.4368 282.192L87.767 276.984M87.767 276.984L91.5564 274.379M77.2233 277.816L80.3951 280.63" stroke="#1730BD" stroke-opacity="0.5"/>
<path d="M172.394 48.1725C171.498 48.4758 169.703 49.5015 167.643 51.5594M172.394 48.1725C172.871 48.0112 173.92 47.3016 174.301 45.7533C174.682 44.205 174.142 43.1728 173.824 42.8503C174.619 44.6244 176.779 48.0758 179.067 47.6887M172.394 48.1725C173.578 49.854 175.372 52.6086 176.925 55.4301M180.021 79.1383C180.179 75.4289 180.402 67.0423 180.021 63.1716C179.829 61.2225 178.5 58.2919 176.925 55.4301M162.385 86.3959C160.097 82.5252 159.525 75.7515 159.525 72.8484C159.525 69.6228 160.383 61.8168 163.815 56.3978C165.096 54.3756 166.416 52.7846 167.643 51.5594M167.643 51.5594C168.586 53.4948 170.19 59.1073 169.058 66.0746C167.926 73.0419 167.951 80.9124 168.105 83.9767M179.067 47.6887C180.021 47.5274 182.213 46.5275 183.357 43.818C184.501 41.1085 184.151 38.1732 183.834 37.0442M179.067 47.6887C179.941 48.5754 181.234 50.1324 182.417 52.0433M185.74 76.7191C185.74 73.171 185.645 64.8166 185.263 59.7847C185.057 57.0582 183.815 54.3032 182.417 52.0433M182.88 45.2695C184.31 46.5597 187.265 49.8176 187.647 52.5271C188.028 55.2366 188.123 69.139 188.123 75.7514M176.925 55.4301C178.283 55.7527 181.283 55.5269 182.417 52.0433M163 140.586C162.206 144.296 161.432 155.186 161.432 161.391C161.432 163.89 161.209 168.019 161.05 169.309C163.593 171.89 168.581 176.664 168.2 175.115C167.723 173.18 169.058 166.714 170.488 157.037C171.632 149.295 173.824 142.844 174.778 140.586" stroke="#1730BD" stroke-opacity="0.5"/>
<path d="M178.898 143.134C179.069 147.283 179.513 157.174 179.923 163.546C180.333 169.919 181.119 173.504 181.461 174.5H185.561C186.073 171.512 187.201 164.443 187.611 160.061C188.021 155.68 187.611 153.552 187.611 152.39" stroke="#1730BD" stroke-opacity="0.5" stroke-width="0.918199"/>
<path d="M181.133 177.567C180.427 176.626 180.839 175.13 181.133 174.499H184.667L186.876 176.385C187.907 177.486 189.968 179.969 189.968 181.101C189.968 182.232 187.907 181.886 186.876 181.572C185.256 180.629 181.84 178.508 181.133 177.567Z" stroke="#1730BD" stroke-opacity="0.5" stroke-width="0.918199"/>
<path d="M161.838 42.4781C160.65 48.8503 162.176 54.899 163 56.8903C163.495 56.0606 165.125 53.7798 167.5 51.3903C170.468 48.4033 171.516 48.452 173 47.4564C174.187 46.6598 174.165 43.7178 174 42.3903C173.176 42.3903 171.237 42.1794 171.237 40.9846C171.237 39.7899 172.886 39.1593 173.71 38.9933C173.875 38.1636 174.679 36.0042 176.5 34.8903C178.321 33.7763 180 33.8903 181.5 35.3903C181.665 35.7221 184.099 37.8981 184.099 39.4912C184.099 41.0842 183.11 43.8056 182.615 44.9672L185.088 47.4564C185.913 48.6179 187.562 51.0407 187.562 51.439C187.562 51.9368 189.046 46.4607 189.046 40.9846C189.046 35.5086 185.583 29.0368 183.11 27.5434C180.636 26.0499 179.838 26.2642 174.891 26.762C169.945 27.2598 163.322 34.5129 161.838 42.4781Z" fill="#2A41C0" stroke="#2A41C0"/>
<path d="M133.598 97.3897V106.508L149.526 120.905M133.598 97.3897C139.872 102.509 152.712 113.418 153.87 116.106C155.029 118.793 151.457 120.425 149.526 120.905M133.598 97.3897L218.549 63.797L281.298 117.065M149.526 120.905C138.907 120.425 133.115 122.344 131.184 124.264C130.334 125.109 129.858 126.699 130.045 128.583M281.298 117.065V125.224L252.82 136.741C251.211 137.061 247.317 137.221 244.614 135.301C241.911 133.382 241.879 127.783 242.201 125.224M281.298 117.065C273.414 120.265 256.295 126.951 250.889 128.103C245.483 129.255 242.844 126.663 242.201 125.224M242.201 125.224C243.005 123.144 243.262 118.409 237.856 116.106C231.099 113.226 219.032 113.226 211.792 118.985C206 123.592 207.126 127.623 208.413 129.063M242.201 125.224C240.913 123.944 236.408 121.288 228.686 120.905C220.963 120.521 211.953 126.183 208.413 129.063M208.413 129.063C209.539 130.023 212.757 132.134 216.619 132.902C221.445 133.862 223.376 135.781 223.376 137.221M223.376 137.221C223.376 138.373 223.376 143.14 223.376 145.379C221.606 146.659 216.136 149.986 208.413 153.058C200.69 156.129 196.185 158.176 194.898 158.816M223.376 137.221C222.99 138.757 220.319 140.1 219.032 140.58L194.898 150.178M194.898 158.816V150.178M194.898 158.816L181.383 146.339C179.13 143.94 173.66 139.141 169.799 139.141C165.937 139.141 163.041 140.42 162.076 141.06M194.898 150.178L176.073 133.862C175.269 133.222 172.598 131.942 168.351 131.942C165.963 131.942 163.768 133.155 162.076 134.559M130.045 128.583C130.283 130.976 131.592 133.844 134.563 136.261C139.872 140.58 145.665 141.06 151.457 141.06C156.09 141.06 158.536 138.821 159.18 137.701C159.743 136.86 160.757 135.652 162.076 134.559M130.045 128.583V140.1C131.229 142.18 135.625 146.723 143.734 148.259C151.843 149.794 158.375 146.659 160.628 144.899C161.11 144.259 162.076 142.596 162.076 141.06M162.076 141.06C162.076 139.525 162.076 136.086 162.076 134.559" stroke="#1730BD" stroke-opacity="0.5"/>
<path d="M153.87 116.106C155.029 118.793 151.457 120.425 149.526 120.905C138.907 120.425 133.115 122.344 131.184 124.264C130.334 125.109 129.858 126.699 130.045 128.583C130.283 130.976 131.592 133.844 134.563 136.261C139.872 140.58 145.665 141.06 151.457 141.06C156.09 141.06 158.536 138.821 159.18 137.701C159.743 136.86 160.757 135.652 162.076 134.559C163.768 133.155 165.963 131.942 168.351 131.942C172.598 131.942 175.269 133.222 176.073 133.862L194.898 150.178L219.032 140.58C220.319 140.1 222.99 138.757 223.376 137.221C223.376 135.781 221.445 133.862 216.619 132.902C212.757 132.134 209.539 130.023 208.413 129.063C207.126 127.623 206 123.592 211.792 118.985C219.032 113.226 231.099 113.226 237.856 116.106C243.262 118.409 243.005 123.144 242.201 125.224C242.844 126.663 245.483 129.255 250.889 128.103C256.295 126.951 273.414 120.265 281.298 117.065L218.549 63.797L133.598 97.3897C139.872 102.509 152.712 113.418 153.87 116.106Z" fill="#2A41C0" stroke="#2A41C0" stroke-width="0.918199"/>
<path d="M136.862 151.954C136.957 152.425 137.007 153.04 136.954 153.702C136.814 155.461 135.946 157.552 133.236 158.152C129.506 158.979 123.738 158.841 121.32 158.669C119.076 158.841 114.275 160.322 113.032 164.868C111.788 169.414 114.24 172.616 115.622 173.65C117.521 175.544 123.807 179.435 133.754 179.848C143.7 180.262 147.569 175.888 148.259 173.65C148.95 172.272 151.471 169.62 156.03 170.034C160.589 170.447 162.419 171.239 162.765 171.583L180.897 186.564V194.312L151.886 207.478C154.166 208.56 157.392 208.509 159.138 208.26C161.729 208.26 166.909 209.706 166.909 215.492V226.044C165.873 229.144 161.418 234.812 149.813 235.638C138.209 236.465 131.528 232.046 129.609 229.98L129.553 225.251C128.475 224.198 125.725 222.097 122.875 221.691C119.973 221.277 117.521 221.863 116.658 222.207L86.0926 237.188V228.406L99.5621 222.207C104.052 219.797 114.275 214.769 119.248 213.942C125.465 212.909 128.055 214.459 129.091 218.075C129.243 218.603 129.394 219.12 129.553 219.624C130.485 222.574 131.693 225.092 134.79 226.856C138.416 228.923 148.777 228.406 152.922 227.373C157.066 226.34 166.909 222.724 166.909 215.492C166.909 209.706 161.729 208.26 159.138 208.26C157.392 208.509 154.166 208.56 151.886 207.478C151.01 207.062 150.273 206.48 149.813 205.677C148.156 202.784 150.159 200.339 151.368 199.478L180.897 186.564L162.765 171.583C162.419 171.239 160.589 170.447 156.03 170.034C151.471 169.62 148.95 172.272 148.259 173.65C147.569 175.888 143.7 180.262 133.754 179.848C123.807 179.435 117.521 175.544 115.622 173.65C114.24 172.616 111.788 169.414 113.032 164.868C114.275 160.322 119.076 158.841 121.32 158.669C123.738 158.841 129.506 158.979 133.236 158.152C135.946 157.552 136.814 155.461 136.954 153.702L136.862 151.954Z" fill="#EAEFF5"/>
<path d="M19.7815 177.266L115.622 134.39L136.862 151.954M19.7815 177.266L34.7946 188.556M19.7815 177.266V185.531L31.6265 194.892M136.862 151.954C137.207 153.676 136.966 157.326 133.236 158.152C129.506 158.979 123.738 158.841 121.32 158.669C119.076 158.841 114.275 160.322 113.032 164.868C111.788 169.414 114.24 172.616 115.622 173.65C117.521 175.544 123.807 179.435 133.754 179.848C143.7 180.262 147.569 175.888 148.259 173.65C148.95 172.272 151.471 169.62 156.03 170.034C160.589 170.447 162.419 171.239 162.765 171.583L180.897 186.564M136.862 151.954L137.38 161.768C137.553 162.113 137.484 163.215 135.826 164.868C133.754 166.934 129.609 165.901 123.393 166.418C118.419 166.831 115.449 170.378 114.586 172.1M180.897 186.564L151.368 199.478C150.159 200.339 148.156 202.784 149.813 205.677C150.273 206.48 151.01 207.062 151.886 207.478M180.897 186.564V194.312L151.886 207.478M166.909 215.492C166.909 209.706 161.729 208.26 159.138 208.26C157.392 208.509 154.166 208.56 151.886 207.478M166.909 215.492C166.909 222.724 157.066 226.34 152.922 227.373C148.777 228.406 138.416 228.923 134.79 226.856C131.693 225.092 130.485 222.574 129.553 219.624M166.909 215.492V226.044C165.873 229.144 161.418 234.812 149.813 235.638C138.209 236.465 131.528 232.046 129.609 229.98L129.553 225.251M86.0926 228.406L99.5621 222.207C104.052 219.797 114.275 214.769 119.248 213.942C125.465 212.909 128.055 214.459 129.091 218.075C129.243 218.603 129.394 219.12 129.553 219.624M86.0926 228.406V237.188M86.0926 228.406L85.0565 227.373L88.1648 224.79L87.6468 224.274C90.5824 222.552 96.1429 218.591 94.8996 216.525C93.6562 214.459 87.8195 218.763 85.0565 221.174M86.0926 237.188L116.658 222.207C117.521 221.863 119.973 221.277 122.875 221.691C125.725 222.097 128.475 224.198 129.553 225.251M86.0926 237.188L79.876 230.989M129.553 219.624L129.609 225.307C129.591 225.289 129.572 225.27 129.553 225.251" stroke="#1730BD" stroke-opacity="0.5"/>
<path d="M32.3522 193.139C30.2898 199.328 33.2115 203.97 34.9302 205.517C36.1332 206.033 39.0549 207.271 41.1173 208.096C43.6953 209.127 45.2421 208.096 48.8513 207.064C51.7386 206.239 52.4605 204.314 52.4605 203.454C52.4605 201.907 53.1823 197.987 56.0697 194.686C59.6789 190.56 58.1321 189.529 57.1009 187.466C56.0697 185.403 52.4605 182.824 46.7889 182.824C42.2517 182.824 40.0861 184.543 39.5705 185.403C38.0238 185.403 34.4146 186.95 32.3522 193.139Z" fill="#2A41C0"/>
<path d="M84.5652 176.344C82.3403 177.113 77.9858 179.942 78.3672 185.108C78.844 191.566 87.4258 192.95 91.7168 192.95C96.0077 192.95 104.59 190.643 105.066 185.108C105.543 179.573 100.299 177.267 97.438 176.344" stroke="#1730BD" stroke-opacity="0.5" stroke-dasharray="1.85 1.85"/>
<path d="M92.1816 117.119V185.57" stroke="#1730BD" stroke-opacity="0.5" stroke-dasharray="1.85 1.85"/>
<path d="M118.659 270.709L203.958 313.708V322.015L118.659 279.016V270.709L139.499 256.05C141.438 255.073 146.187 253.509 149.677 255.073C154.039 257.027 152.585 260.448 155.977 262.891C159.37 265.334 173.425 266.8 181.664 261.425C183.525 260.211 184.76 258.891 185.541 257.57C184.087 255.18 179.241 253.118 172.94 253.118C167.9 253.118 165.869 250.838 165.484 249.698V240.902C165.587 243.364 169.604 245.418 175.848 245.789C182.439 246.18 185.057 248.232 185.541 249.209C186.585 250.846 187.528 254.211 185.541 257.57C184.76 258.891 183.525 260.211 181.664 261.425C173.425 266.8 159.37 265.334 155.977 262.891C152.585 260.448 154.039 257.027 149.677 255.073C146.187 253.509 141.438 255.073 139.499 256.05L118.659 270.709Z" fill="#EAEFF5"/>
<path d="M203.958 313.708L118.659 270.709M203.958 313.708V322.015M203.958 313.708L235.461 288.788M118.659 270.709L139.499 256.05C141.438 255.073 146.187 253.509 149.677 255.073C154.039 257.027 152.585 260.448 155.977 262.891C159.37 265.334 173.425 266.8 181.664 261.425C183.525 260.211 184.76 258.891 185.541 257.57M118.659 270.709V279.016L203.958 322.015M260.178 239.436C260.954 236.309 258.886 233.573 257.755 232.596C255.816 230.804 249.516 227.123 239.823 226.732C230.13 226.341 226.737 229.501 226.252 231.13C226.091 232.758 225.186 236.407 222.86 237.971C220.533 239.534 215.751 238.948 213.651 238.459L186.026 224.777C180.695 228.198 169.354 235.723 166.64 238.459C165.818 239.287 165.451 240.116 165.484 240.902M203.958 322.015L213.651 314.197M165.484 240.902C165.587 243.364 169.604 245.418 175.848 245.789C182.439 246.18 185.057 248.232 185.541 249.209C186.585 250.846 187.528 254.211 185.541 257.57M165.484 240.902V249.698C165.869 250.838 167.9 253.118 172.94 253.118C179.241 253.118 184.087 255.18 185.541 257.57" stroke="#1730BD" stroke-opacity="0.5"/>
<path d="M231.939 300.03L232.903 300.784C234.029 300.137 236.956 298.262 239.658 295.935C241.773 294.112 243.321 291.529 244.656 288.661M231.939 300.03L224.702 306.118C224.058 307.573 222 310.967 218.912 312.906C215.053 315.331 212.158 310.967 215.535 307.088C218.237 303.984 221.485 303.532 222.772 303.693L229.044 297.767M231.939 300.03L229.044 297.767M229.044 297.767L228.561 297.39C231.295 294.965 236.86 288.758 237.245 283.327C237.605 278.275 239.567 272.416 242.139 269.75M244.656 288.661C245.453 286.951 246.174 285.139 246.895 283.327C248.824 278.478 248.824 268.295 244.965 268.295C243.978 268.295 243.023 268.834 242.139 269.75M244.656 288.661C244.74 290.514 244.635 294.598 243.747 298.359M264.263 295.935C265.228 297.551 267.447 301.851 268.605 306.118C270.052 311.452 267.64 329.393 267.158 337.152C266.772 343.358 269.248 350.082 270.535 352.669C270.283 352.871 269.959 353.129 269.57 353.435M264.263 295.935C262.816 297.551 258.859 300.881 254.614 301.269C249.307 301.754 244.459 299.329 243.747 298.359M264.263 295.935C264.263 293.672 265.228 284.782 265.228 284.782L265.71 278.963M243.747 298.359C243.55 299.193 243.315 300.01 243.035 300.784C241.105 306.118 238.21 319.21 239.658 332.788C240.816 343.649 242.392 356.386 243.035 361.397C243.559 361.674 244.213 361.971 244.965 362.252M270.535 267.326L266.193 270.72C265.779 272.798 266.143 275.604 265.71 278.963M270.535 267.326V274.599L265.71 278.963M270.535 267.326L264.667 263.931M244.965 362.252C246.412 368.432 249.5 382.345 250.272 388.551C251.044 394.758 250.915 397.926 250.754 398.734C251.88 399.543 254.228 400.674 254.614 398.734C255.096 396.31 256.544 377.884 256.544 370.61C256.544 364.791 256.544 362.911 256.544 362.699M244.965 362.252C247.968 363.376 252.524 364.256 256.544 362.699M256.544 362.699C257.377 362.376 258.187 361.949 258.956 361.397C259.782 360.804 260.589 360.218 261.368 359.647M261.368 359.647C262.172 361.362 263.877 366.343 264.263 372.55C264.649 378.756 265.389 387.097 265.71 390.491C266.675 391.784 268.798 393.594 269.57 390.491C270.535 386.612 270.535 372.55 270.535 365.276C270.535 359.457 269.892 354.957 269.57 353.435M261.368 359.647C264.889 357.068 267.855 354.784 269.57 353.435M244.965 247.929C244.965 250.839 245.544 258.694 247.859 259.082C249.048 259.281 250.456 258.893 251.719 258.337M251.719 258.337L254.614 256.658C254.162 256.998 253.479 257.447 252.684 257.869M251.719 258.337C252.053 258.19 252.377 258.031 252.684 257.869M242.139 269.75C242.759 268.457 244.579 265.58 246.895 264.416M246.895 264.416C249.789 262.961 252.202 261.989 252.684 257.869M246.895 264.416C249.413 265.58 253.412 264.901 255.096 264.416" stroke="#1730BD" stroke-opacity="0.5"/>
<path d="M244.34 245.204C242.837 249.46 248.66 250.162 251.009 250.646C252.419 251.06 256.648 255.966 255.708 259.351C254.768 262.737 255.708 265.155 257.587 268.056C259.467 270.958 261.346 273.86 263.225 273.86C265.105 273.86 265.575 263.22 266.514 259.351C267.454 255.482 266.984 251.938 266.514 249.52C266.044 247.102 264.635 243.875 261.346 240.49C258.057 237.105 246.22 239.884 244.34 245.204Z" fill="#2A41C0"/>
<path d="M321.733 152.524L383 204.665V212.764L285.576 250.731L265.991 233.013V223.503C265.844 222.506 266.218 221.432 267.497 220.358C270.51 217.827 280.052 218.839 282.563 218.333C285.074 217.827 287.585 217.32 289.593 213.777C285.576 209.727 279.55 205.677 271.012 205.171C264.183 204.766 259.127 208.715 257.453 210.74C257.081 211.162 256.559 211.701 255.947 212.26C254.357 213.712 251.661 215.296 249.921 215.296C247.51 215.296 244.899 214.789 243.392 213.271L226.318 198.59V189.985L255.445 177.952C248.213 177.639 244.008 173.694 242.81 171.761V163.155C242.559 160.358 244.034 156.617 250.423 153.537C261.973 147.968 270.008 149.487 276.034 152.524C282.061 155.562 277.541 159.611 281.056 163.155C283.868 165.99 288.589 165.349 290.598 164.674L321.733 152.524Z" fill="#EAEFF5"/>
<path d="M383 204.665L321.733 152.524L290.598 164.674C288.589 165.349 283.868 165.99 281.056 163.155C277.541 159.611 282.061 155.562 276.034 152.524C270.008 149.487 261.973 147.968 250.423 153.537C244.034 156.617 242.559 160.358 242.81 163.155M383 204.665L285.576 242.125M383 204.665V212.764L285.576 250.731M226.318 189.985L244.397 206.184C245.401 207.196 247.51 207.196 249.921 207.196C252.331 207.196 254.942 205.509 255.947 204.665M226.318 189.985V198.59L243.392 213.271C244.899 214.789 247.51 215.296 249.921 215.296C251.661 215.296 254.357 213.712 255.947 212.26M226.318 189.985L255.445 177.952M255.947 204.665C257.621 202.809 259.964 200.109 263.48 198.59C269.758 195.878 274.026 197.072 278.043 198.084C282.061 199.097 287.082 203.146 288.589 204.665C290.096 206.184 291.602 210.233 289.593 213.777M255.947 204.665V212.26M289.593 213.777C287.585 217.32 285.074 217.827 282.563 218.333C280.052 218.839 270.51 217.827 267.497 220.358C266.218 221.432 265.844 222.506 265.991 223.503M289.593 213.777C285.576 209.727 279.55 205.677 271.012 205.171C264.183 204.766 259.127 208.715 257.453 210.74C257.081 211.162 256.559 211.701 255.947 212.26M285.576 242.125C280.554 237.569 270.109 228.154 268.502 226.939C267.345 226.065 266.189 224.855 265.991 223.503M285.576 242.125V250.731M285.576 250.731L265.991 233.013V223.503M242.81 163.155C242.922 164.403 243.378 165.463 243.894 166.192C245.066 167.373 248.916 169.837 254.942 170.242C260.969 170.647 258.793 175.135 256.951 177.329L255.445 177.952M242.81 163.155V171.761C244.008 173.694 248.213 177.639 255.445 177.952" stroke="#1730BD" stroke-opacity="0.5"/>
</svg>
