<svg width="240" height="299" viewBox="0 0 240 299" fill="none" xmlns="http://www.w3.org/2000/svg">
<path fill-rule="evenodd" clip-rule="evenodd" d="M42.7848 140.335C44.6132 137.701 52.6508 129.043 70.1743 115.487C87.6977 101.931 117.847 79.1815 130.731 69.5014C133.268 67.4582 139.209 63.9283 142.675 66.1553C146.142 68.3823 145.442 73.9185 144.659 76.4082C144.185 78.4164 142.223 83.2502 138.164 86.5194L128.016 94.6926L128.016 127.927C128.016 129.299 126.826 130.367 125.463 130.22C124.305 130.096 123.422 129.128 123.404 127.964L122.942 98.7791L67.377 141.441L64.2146 170.784C64.1011 171.838 63.1545 172.6 62.1006 172.486C61.0466 172.373 60.2842 171.426 60.3978 170.372L63.2311 144.083L49.8654 153.454C48.2564 154.053 44.3573 154.405 41.633 151.022C38.9086 147.64 41.2657 142.488 42.7848 140.335ZM45.6967 149.144C45.0156 148.298 44.5484 145.468 48.1284 140.911C51.7084 136.355 65.5698 124.772 72.053 119.551L124.236 79.6128L135.147 71.522C136.529 70.6413 139.549 69.3708 140.573 71.3345C141.597 73.2982 141.351 76.0517 138.987 78.8857C137.804 80.3028 133.257 84.755 124.528 91.2277C115.8 97.7004 72.6276 130.938 52.1327 146.748C50.4414 148.111 46.7864 150.497 45.6967 149.144Z" fill="#2A41C0"/>
<path d="M70.1743 115.487L69.8683 115.091L70.1743 115.487ZM42.7848 140.335L43.1933 140.623L43.1956 140.62L42.7848 140.335ZM130.731 69.5014L131.031 69.9012L131.038 69.8961L131.045 69.8908L130.731 69.5014ZM142.675 66.1553L142.945 65.7346L142.945 65.7346L142.675 66.1553ZM144.659 76.4082L144.182 76.2582L144.177 76.2756L144.173 76.2934L144.659 76.4082ZM138.164 86.5194L138.477 86.9088L138.164 86.5194ZM128.016 94.6926L127.703 94.3032L127.516 94.4533L127.516 94.6926L128.016 94.6926ZM128.016 127.927L127.516 127.927L128.016 127.927ZM123.404 127.964L123.904 127.956L123.404 127.964ZM122.942 98.7791L123.442 98.7712L123.427 97.777L122.638 98.3825L122.942 98.7791ZM67.377 141.441L67.0725 141.045L66.9028 141.175L66.8799 141.388L67.377 141.441ZM60.3978 170.372L59.9007 170.319L60.3978 170.372ZM63.2311 144.083L63.7282 144.137L63.8463 143.041L62.9441 143.674L63.2311 144.083ZM49.8654 153.454L50.0398 153.923L50.1 153.9L50.1525 153.863L49.8654 153.454ZM41.633 151.022L41.2436 151.336L41.633 151.022ZM48.1284 140.911L48.5215 141.22L48.5215 141.22L48.1284 140.911ZM45.6967 149.144L46.0861 148.83L46.0861 148.83L45.6967 149.144ZM72.053 119.551L71.7491 119.153L71.7394 119.161L72.053 119.551ZM124.236 79.6128L123.938 79.2111L123.932 79.2158L124.236 79.6128ZM135.147 71.522L134.878 71.1003L134.863 71.1098L134.849 71.1203L135.147 71.522ZM140.573 71.3345L140.129 71.5657L140.129 71.5657L140.573 71.3345ZM138.987 78.8857L139.37 79.2061L138.987 78.8857ZM124.528 91.2277L124.826 91.6293L124.528 91.2277ZM52.1327 146.748L51.8272 146.352L51.819 146.359L52.1327 146.748ZM69.8683 115.091C52.3382 128.652 44.2486 137.349 42.374 140.05L43.1956 140.62C44.9778 138.052 52.9635 129.433 70.4802 115.882L69.8683 115.091ZM130.431 69.1017C117.547 78.7818 87.3949 101.533 69.8683 115.091L70.4802 115.882C88.0006 102.329 118.147 79.5813 131.031 69.9012L130.431 69.1017ZM142.945 65.7346C140.999 64.4843 138.442 64.8889 136.175 65.7603C133.879 66.643 131.715 68.0668 130.417 69.112L131.045 69.8908C132.284 68.8928 134.359 67.5301 136.534 66.6937C138.739 65.8461 140.885 65.5994 142.405 66.576L142.945 65.7346ZM145.136 76.5582C145.542 75.2668 145.926 73.1946 145.759 71.1427C145.593 69.096 144.867 66.9687 142.945 65.7346L142.405 66.576C143.951 67.5689 144.608 69.3232 144.763 71.2238C144.917 73.1191 144.559 75.0599 144.182 76.2582L145.136 76.5582ZM138.477 86.9088C142.647 83.5504 144.655 78.6048 145.146 76.523L144.173 76.2934C143.716 78.228 141.798 82.95 137.85 86.13L138.477 86.9088ZM128.33 95.082L138.477 86.9088L137.85 86.13L127.703 94.3032L128.33 95.082ZM128.516 127.927L128.516 94.6926L127.516 94.6926L127.516 127.927L128.516 127.927ZM125.409 130.718C127.068 130.896 128.516 129.596 128.516 127.927L127.516 127.927C127.516 129.002 126.584 129.838 125.516 129.723L125.409 130.718ZM122.904 127.972C122.926 129.388 124.001 130.566 125.409 130.718L125.516 129.723C124.61 129.626 123.918 128.868 123.904 127.956L122.904 127.972ZM122.442 98.787L122.904 127.972L123.904 127.956L123.442 98.7712L122.442 98.787ZM67.6815 141.838L123.247 99.1757L122.638 98.3825L67.0725 141.045L67.6815 141.838ZM64.7118 170.837L67.8741 141.495L66.8799 141.388L63.7175 170.73L64.7118 170.837ZM62.047 172.983C63.3755 173.127 64.5686 172.166 64.7118 170.837L63.7175 170.73C63.6335 171.509 62.9336 172.073 62.1541 171.989L62.047 172.983ZM59.9007 170.319C59.7575 171.647 60.7184 172.84 62.047 172.983L62.1541 171.989C61.3747 171.905 60.8109 171.205 60.8949 170.426L59.9007 170.319ZM62.734 144.03L59.9007 170.319L60.8949 170.426L63.7282 144.137L62.734 144.03ZM50.1525 153.863L63.5181 144.493L62.9441 143.674L49.5784 153.045L50.1525 153.863ZM41.2436 151.336C44.1501 154.945 48.31 154.566 50.0398 153.923L49.6911 152.985C48.2029 153.539 44.5645 153.865 42.0224 150.709L41.2436 151.336ZM42.3762 140.047C41.5872 141.165 40.5853 143.052 40.1294 145.11C39.6739 147.165 39.7478 149.479 41.2436 151.336L42.0224 150.709C40.7938 149.183 40.684 147.23 41.1057 145.326C41.5271 143.424 42.4633 141.658 43.1933 140.623L42.3762 140.047ZM47.7352 140.602C45.9097 142.926 45.086 144.847 44.8223 146.332C44.5611 147.803 44.8466 148.885 45.3073 149.457L46.0861 148.83C45.8656 148.556 45.577 147.801 45.8069 146.506C46.0344 145.226 46.7671 143.453 48.5215 141.22L47.7352 140.602ZM71.7394 119.161C68.494 121.775 63.4027 125.98 58.6734 130.103C53.9596 134.213 49.56 138.28 47.7352 140.602L48.5215 141.22C50.2767 138.986 54.5979 134.983 59.3306 130.857C64.0479 126.745 69.1289 122.548 72.3667 119.94L71.7394 119.161ZM123.932 79.2158L71.7492 119.153L72.3569 119.948L124.54 80.0099L123.932 79.2158ZM134.849 71.1203L123.938 79.2112L124.534 80.0144L135.445 71.9236L134.849 71.1203ZM141.016 71.1033C140.696 70.4898 140.207 70.1166 139.639 69.9352C139.087 69.7589 138.482 69.7698 137.909 69.8689C136.765 70.0663 135.602 70.6391 134.878 71.1003L135.416 71.9436C136.074 71.5241 137.111 71.0214 138.079 70.8543C138.561 70.7711 138.99 70.7776 139.335 70.8878C139.664 70.993 139.937 71.1973 140.129 71.5657L141.016 71.1033ZM139.37 79.2061C141.828 76.2613 142.157 73.2922 141.016 71.1033L140.129 71.5657C141.036 73.3043 140.875 75.842 138.603 78.5654L139.37 79.2061ZM124.826 91.6293C133.567 85.1481 138.15 80.6682 139.37 79.2061L138.603 78.5654C137.458 79.9374 132.948 84.3619 124.231 90.8261L124.826 91.6293ZM52.4381 147.144C72.9359 131.332 116.102 98.0983 124.826 91.6293L124.231 90.8261C115.497 97.3024 72.3193 130.545 51.8273 146.352L52.4381 147.144ZM45.3072 149.457C45.7315 149.984 46.3726 150.092 46.9763 150.029C47.5807 149.966 48.252 149.725 48.9032 149.416C50.2126 148.796 51.5832 147.833 52.4463 147.138L51.819 146.359C50.9909 147.026 49.6883 147.937 48.475 148.512C47.8648 148.802 47.3123 148.988 46.8721 149.035C46.4312 149.081 46.2067 148.98 46.0861 148.83L45.3072 149.457Z" fill="#2A41C0"/>
<path d="M81.0633 99.1888L89.5397 102.901L89.2664 83.4342C90.0861 77.3373 89.5469 73.8045 91.7202 70.6905C95.244 65.6417 98.4124 66.6307 98.4124 66.6307C99.3745 69.2392 103.161 71.0795 107.443 71.2251C111.181 71.3522 113.673 71.4369 114.808 70.3152L120.939 77.1011C118.776 77.7943 114.733 80.5071 115.86 85.8129C117.105 91.6676 120.169 95.0525 125.244 97.681C125.918 98.03 126.627 98.3657 127.373 98.6921C129.8 99.7552 132.473 100.381 134.989 100.657C139.063 101.104 142.584 100.375 144.275 99.6242C145.235 99.1977 145.136 99.4324 146.673 98.606C152.464 96.449 157.668 97.9984 158.736 102.768C164.806 103.307 171.308 129.204 173.832 141.822L175.598 147.736L180.104 143.84C181.111 142.823 183.582 141.281 185.414 143.249C187.703 145.71 183.437 149.641 180.969 151.618L186.757 155.32L174.436 165.372L163.675 159.246L164.347 165.281C166.263 164.389 167.255 164.731 167.665 164.912L171.282 167.225C173.423 168.345 173.945 173.039 171.738 177.358C169.635 181.472 166.51 184.729 163.042 183.757L161.64 183.234L157.874 179.579C157.061 178.312 157.479 174.685 159.559 170.566C160.453 168.797 161.561 167.544 162.489 166.701L161.395 156.867L157.637 154.214C157.932 159.9 157.296 165.452 156.755 169.52C155.291 180.519 149.112 191.417 144.473 198.043C139.835 204.669 133.178 211.273 124.651 213.147C118.781 214.438 110.489 212.686 105.097 206.497C100.783 201.546 98.3695 194.346 98.3617 188.237C97.969 188.733 95.9306 190.544 90.9192 193.817C85.9077 197.091 80.573 197.458 78.5321 197.232C73.4186 197.575 62.729 194.102 59.9834 169.424C57.4778 146.902 74.161 123.718 83.0777 117.295L81.0633 99.1888Z" fill="white"/>
<path d="M83.973 125.342L83.0777 117.295M83.973 125.342C82.8708 125.465 76.1067 132.137 71.081 142.391M83.973 125.342L86.4622 126.577M83.973 125.342L85.9874 143.448M81.0633 99.1888L79.2727 83.0944C78.8774 81.5543 77.0695 78.9946 73.0007 81.0766C68.9318 83.1586 68.8493 84.0278 69.3167 84.2021L54.5808 96.7039L51.4036 92.3051L65.625 81.2183C65.8711 81.4172 66.6139 81.6514 67.6162 80.9967C68.869 80.1785 71.8893 77.1268 75.8717 76.6838C79.0576 76.3293 80.9878 78.3776 81.5546 79.446L83.8674 100.235M81.0633 99.1888L89.5397 102.901M81.0633 99.1888L83.0777 117.295M95.897 105.685L89.5397 102.901M115.855 140.126L88.9515 127.813M89.5397 102.901L89.2664 83.4342C90.0861 77.3373 89.5469 73.8045 91.7202 70.6905C95.244 65.6417 98.4124 66.6307 98.4124 66.6307C99.3745 69.2392 103.161 71.0795 107.443 71.2251C111.181 71.3522 113.673 71.4369 114.808 70.3152M114.808 70.3152L120.939 77.1011C118.776 77.7943 114.733 80.5071 115.86 85.8129C117.105 91.6676 120.169 95.0525 125.244 97.681M114.808 70.3152C114.45 69.8404 114.008 69.1127 113.776 68.3933C113.499 67.5311 113.525 66.6807 114.361 66.2916C115.767 65.6371 118.561 64.4627 120.036 62.2657C120.571 61.4679 120.933 60.5354 120.99 59.4439C121.163 56.166 119.77 47.057 119.35 45.2933M124.021 122.923L123.499 118.229M123.499 118.229L121.857 103.476C121.399 99.3567 120.517 93.8489 116.681 93.1895C112.845 92.53 107.909 96.8811 105.92 99.139L103.265 99.4344L90.371 110.374L94.212 114.699L100.916 108.521M123.499 118.229L119.956 116.587M100.916 108.521L107.695 103.015L107.461 100.907C109.481 98.9368 114.14 95.2744 116.39 96.6163C119.269 98.3328 119.584 111.23 119.956 116.587M100.916 108.521L119.956 116.587M125.244 97.681C125.918 98.03 126.627 98.3657 127.373 98.6921C129.8 99.7552 132.473 100.381 134.989 100.657M125.244 97.681L125.989 104.374M127.779 120.469L121.001 125.975L121.299 128.657L124.394 126.276M127.779 120.469C132.299 116.798 141.412 110.126 147.012 106.109C152.271 102.337 157.118 106.342 158.08 108.951L160.989 135.104M127.779 120.469L125.989 104.374M164.347 165.281L162.489 166.701L157.316 120.207M164.347 165.281C164.08 165.508 161.376 166.97 159.559 170.566C157.479 174.685 157.061 178.312 157.874 179.579L161.64 183.234M164.347 165.281C166.263 164.389 167.255 164.731 167.665 164.912L171.282 167.225M164.347 165.281L163.675 159.246M83.0777 117.295C74.161 123.718 57.4778 146.902 59.9834 169.424C62.729 194.102 73.4186 197.575 78.5321 197.232C80.573 197.458 85.9077 197.091 90.9192 193.817C95.9306 190.544 97.969 188.733 98.3618 188.237M98.3618 188.237C98.3695 194.346 100.783 201.546 105.097 206.497C110.489 212.686 118.781 214.438 124.651 213.147C133.178 211.273 139.835 204.669 144.473 198.043C149.112 191.417 155.291 180.519 156.755 169.52C157.296 165.452 157.932 159.9 157.637 154.214M98.3618 188.237C98.204 186.819 98.177 184.476 98.4708 181.436M125.14 132.982C121.313 135.728 116.811 137.821 111.769 145.053M125.14 132.982L124.394 126.276M125.14 132.982C129.447 129.893 139.016 126.645 145.895 129.075M98.4708 181.436C97.0846 183.154 94.6245 185.596 91.5723 187.608M98.4708 181.436C98.9832 176.136 100.696 167.357 103.976 160.184M74.0943 187.542C74.5656 186.947 81.9862 167.881 85.6375 158.423M85.6375 158.423C86.9899 158.499 90.1211 157.653 91.8272 153.661M85.6375 158.423C84.7125 158.164 82.0204 156.11 83.4148 150.524C84.5825 145.845 88.1278 144.568 89.4553 144.42M85.6375 158.423L82.1696 157.451M88.2925 158.128L91.5723 187.608M91.5723 187.608C87.9984 189.963 83.6127 191.729 79.1881 191.049C70.9845 189.789 67.3969 179.688 66.6285 174.795C66.3145 173.718 65.987 172.117 65.7696 170.138M65.7696 170.138C65.2349 165.272 65.3659 158.124 67.9997 150.881C68.7856 148.72 70.0537 144.487 71.081 142.391M65.7696 170.138L82.1696 157.451M82.1696 157.451C81.1818 156.625 79.6113 153.783 81.232 149.023M71.081 142.391L81.232 149.023M81.232 149.023C82.7514 144.561 85.9874 143.448 85.9874 143.448M85.9874 143.448L89.4553 144.42M88.9515 127.813C90.204 130.129 92.5797 133.851 95.3948 136.971M88.9515 127.813L86.4622 126.577M102.655 142.273C108.204 143.828 110.833 144.69 111.769 145.053M102.655 142.273L92.7817 150.161M102.655 142.273C100.187 141.581 97.6501 139.47 95.3948 136.971M111.769 145.053C109.432 148.405 107.124 152.674 104.457 159.063C104.295 159.451 104.153 159.797 103.976 160.184M95.3948 136.971L90.8573 144.943M90.8573 144.943C91.8667 145.963 93.5334 149.67 91.8272 153.661M90.8573 144.943L89.4553 144.42M86.4622 126.577L88.7169 143.824L89.4553 144.42M91.8272 153.661L103.976 160.184M124.394 126.276L142.963 111.99C144.191 110.949 147.163 108.672 149.227 107.899C151.808 106.933 154.612 107.979 155.499 109.917C156.209 111.467 156.611 113.866 156.685 114.537L157.316 120.207M145.895 129.075C147.961 129.804 148.917 130.676 150.739 132.273C155.938 136.831 157.227 146.298 157.637 154.214M145.895 129.075L157.316 120.207M127.548 112.348C135.436 108.754 148.556 101.864 158.736 102.768M158.736 102.768C164.806 103.307 171.308 129.204 173.832 141.822M158.736 102.768C157.668 97.9984 152.464 96.4491 146.673 98.606C145.136 99.4325 145.235 99.1977 144.275 99.6242C142.584 100.375 139.063 101.104 134.989 100.657M173.832 141.822L169.484 145.022M173.832 141.822L175.598 147.736M169.484 145.022L160.989 135.104M169.484 145.022L171.093 151.632M160.989 135.104L163.675 159.246M125.989 104.374L134.989 100.657M125.148 139.092L125.67 143.786M125.148 139.092C128.036 136.959 134.913 133.211 140.641 133.397M125.148 139.092C123.343 140.619 122.327 141.257 120.847 142.714M127.684 161.892L130.489 162.938M127.684 161.892L126.491 151.163M127.684 161.892C122.374 162.483 121.428 172.093 122.979 173.957M130.489 162.938L139.409 144.973M130.489 162.938C129.333 162.614 126.757 163.217 125.701 168.223C124.645 173.229 126.497 175.376 127.554 175.824M130.489 162.938C132.732 163.775 133.392 164.878 133.442 165.325M144.761 134.194L143.334 137.068M144.761 134.194C143.464 133.688 142.07 133.443 140.641 133.397M144.761 134.194C150.444 136.956 154.342 151.458 151.587 165.343C148.831 179.228 144.105 187.9 144.105 187.9C140.463 194.434 129.789 211.009 115.265 207.3C113.784 206.827 112.481 206.083 111.645 204.955C108.482 200.689 105.094 196.314 104.999 187.499M104.999 187.499L122.979 173.957M104.999 187.499C104.709 185.834 104.535 182.734 104.904 178.684M122.979 173.957L125.783 175.003M125.783 175.003L111.734 205.759M125.783 175.003L127.554 175.824M129.251 175.975C130.37 186.034 132.549 205.615 132.31 203.469C132.071 201.324 130.171 184.246 129.251 175.975ZM129.251 175.975L127.554 175.824M129.251 175.975C130.357 175.852 132.097 174.979 132.86 172.179M132.86 172.179L147.769 179.346M132.86 172.179L133.442 165.325M133.442 165.325L152.011 151.039L139.409 144.973M139.409 144.973L143.334 137.068M109.801 161.941L122.83 167.185M109.801 161.941C107.364 168.272 105.322 174.092 104.904 178.684M109.801 161.941C110.949 159.039 113.134 151.912 117.854 146.013M126.491 151.163L143.334 137.068M126.491 151.163L125.67 143.786M126.491 151.163L117.567 148.082M104.904 178.684C108.272 174.641 115.365 162.121 117.567 148.082M117.854 146.013C118.806 144.824 119.795 143.751 120.847 142.714M117.854 146.013C117.771 146.706 117.675 147.396 117.567 148.082M125.67 143.786L140.641 133.397M125.67 143.786L120.847 142.714M171.282 167.225C169.856 166.479 165.999 165.64 162.438 172.283C159.702 177.384 160.035 181.676 161.64 183.234M171.282 167.225C173.423 168.345 173.945 173.039 171.738 177.358C169.635 181.472 166.51 184.729 163.042 183.757C162.392 183.514 161.64 183.234 161.64 183.234M174.436 165.372L186.757 155.32L180.969 151.618M174.436 165.372L172.701 158.242M174.436 165.372L163.675 159.246M180.969 151.618L172.701 158.242M180.969 151.618C183.437 149.641 187.703 145.71 185.414 143.249C183.582 141.281 181.111 142.823 180.104 143.84L175.598 147.736M172.701 158.242L171.093 151.632M171.093 151.632L175.598 147.736M157.637 154.214L162.124 157.382" stroke="#1730BD" stroke-opacity="0.5"/>
<path fill-rule="evenodd" clip-rule="evenodd" d="M125.577 177.932C127.309 175.276 135.005 166.492 151.935 152.596C168.865 138.701 198.01 115.361 210.467 105.428C212.915 103.336 218.685 99.6788 222.174 101.781C225.664 103.883 225.13 109.373 224.427 111.856C224.016 113.854 222.215 118.687 218.297 122.033L208.502 130.399L208.168 164.266C208.155 165.588 207.025 166.623 205.707 166.519C204.52 166.426 203.604 165.435 203.604 164.244L203.604 134.582L149.91 178.324L149.686 210.587C149.679 211.689 148.737 212.554 147.639 212.467C146.651 212.389 145.889 211.565 145.889 210.574L145.889 181.053L132.948 190.694C131.375 191.332 127.532 191.791 124.743 188.526C121.955 185.261 124.137 180.103 125.577 177.932ZM128.705 186.554C128.008 185.738 127.466 182.954 130.874 178.349C134.282 173.744 147.649 161.904 153.907 156.559L204.336 115.605L214.888 107.299C216.228 106.389 219.176 105.048 220.244 106.959C221.312 108.87 221.148 111.598 218.892 114.466C217.764 115.9 213.398 120.43 204.956 127.075C196.515 133.72 154.8 167.796 134.997 184.003C133.365 185.398 129.821 187.86 128.705 186.554Z" fill="#2A41C0"/>
<path d="M151.935 152.596L152.252 152.983L151.935 152.596ZM125.577 177.932L125.994 178.208L125.996 178.205L125.577 177.932ZM210.467 105.428L210.778 105.819L210.785 105.813L210.791 105.808L210.467 105.428ZM222.174 101.781L222.432 101.352L222.432 101.352L222.174 101.781ZM224.427 111.856L223.946 111.72L223.941 111.737L223.937 111.755L224.427 111.856ZM218.297 122.033L218.621 122.413L218.297 122.033ZM208.502 130.399L208.177 130.019L208.004 130.166L208.002 130.394L208.502 130.399ZM208.168 164.266L208.668 164.271L208.168 164.266ZM203.604 164.244L204.104 164.244L203.604 164.244ZM203.604 134.582L204.104 134.582L204.104 133.53L203.288 134.194L203.604 134.582ZM149.91 178.324L149.595 177.936L149.412 178.085L149.41 178.321L149.91 178.324ZM149.686 210.587L149.186 210.584L149.186 210.584L149.686 210.587ZM145.889 210.574L146.389 210.574L145.889 210.574ZM145.889 181.053L146.389 181.053L146.389 180.057L145.59 180.652L145.889 181.053ZM132.948 190.694L133.136 191.158L133.195 191.133L133.247 191.095L132.948 190.694ZM124.743 188.526L125.123 188.201L124.743 188.526ZM130.874 178.349L130.472 178.052L130.874 178.349ZM128.705 186.554L129.086 186.229L129.086 186.229L128.705 186.554ZM153.907 156.559L153.592 156.17L153.583 156.178L153.907 156.559ZM204.336 115.605L204.027 115.212L204.021 115.217L204.336 115.605ZM214.888 107.299L214.607 106.885L214.592 106.895L214.579 106.906L214.888 107.299ZM220.244 106.959L219.808 107.203L219.808 107.203L220.244 106.959ZM218.892 114.466L218.499 114.157L218.499 114.157L218.892 114.466ZM134.997 184.003L134.68 183.616L134.672 183.623L134.997 184.003ZM151.618 152.21C134.681 166.11 126.934 174.935 125.158 177.659L125.996 178.205C127.683 175.617 135.328 166.873 152.252 152.983L151.618 152.21ZM210.155 105.037C197.699 114.97 168.551 138.312 151.618 152.21L152.252 152.983C169.18 139.09 198.322 115.752 210.778 105.819L210.155 105.037ZM222.432 101.352C220.471 100.171 217.953 100.644 215.738 101.57C213.493 102.508 211.395 103.977 210.142 105.047L210.791 105.808C211.987 104.787 213.998 103.381 216.123 102.493C218.277 101.593 220.389 101.289 221.916 102.209L222.432 101.352ZM224.908 111.992C225.273 110.704 225.593 108.645 225.37 106.621C225.147 104.602 224.368 102.518 222.432 101.352L221.916 102.209C223.47 103.145 224.169 104.858 224.376 106.73C224.582 108.598 224.284 110.525 223.946 111.72L224.908 111.992ZM218.621 122.413C222.647 118.975 224.491 114.029 224.917 111.957L223.937 111.755C223.542 113.679 221.782 118.399 217.972 121.653L218.621 122.413ZM208.826 130.779L218.621 122.413L217.972 121.653L208.177 130.019L208.826 130.779ZM208.668 164.271L209.002 130.404L208.002 130.394L207.668 164.261L208.668 164.271ZM205.668 167.018C207.275 167.144 208.653 165.883 208.668 164.271L207.668 164.261C207.658 165.294 206.776 166.102 205.747 166.021L205.668 167.018ZM203.104 164.244C203.104 165.696 204.221 166.904 205.668 167.018L205.747 166.021C204.819 165.948 204.104 165.174 204.104 164.244L203.104 164.244ZM203.104 134.582L203.104 164.244L204.104 164.244L204.104 134.582L203.104 134.582ZM150.226 178.712L203.92 134.969L203.288 134.194L149.595 177.936L150.226 178.712ZM150.186 210.591L150.41 178.327L149.41 178.321L149.186 210.584L150.186 210.591ZM147.599 212.966C148.988 213.075 150.177 211.983 150.186 210.591L149.186 210.584C149.181 211.396 148.487 212.032 147.678 211.969L147.599 212.966ZM145.389 210.574C145.389 211.826 146.351 212.867 147.599 212.966L147.678 211.969C146.95 211.911 146.389 211.304 146.389 210.574L145.389 210.574ZM145.389 181.053L145.389 210.574L146.389 210.574L146.389 181.053L145.389 181.053ZM133.247 191.095L146.187 181.454L145.59 180.652L132.649 190.293L133.247 191.095ZM124.363 188.85C127.34 192.336 131.443 191.844 133.136 191.158L132.76 190.231C131.307 190.82 127.723 191.245 125.123 188.201L124.363 188.85ZM125.16 177.656C124.412 178.784 123.475 180.677 123.083 182.725C122.692 184.77 122.83 187.056 124.363 188.85L125.123 188.201C123.867 186.731 123.703 184.805 124.065 182.913C124.427 181.022 125.302 179.251 125.994 178.208L125.16 177.656ZM130.472 178.052C128.734 180.4 127.974 182.323 127.756 183.799C127.539 185.261 127.852 186.325 128.325 186.878L129.086 186.229C128.861 185.967 128.555 185.23 128.745 183.945C128.933 182.674 129.606 180.903 131.276 178.647L130.472 178.052ZM153.583 156.178C150.45 158.854 145.538 163.155 140.983 167.364C136.442 171.56 132.209 175.704 130.472 178.052L131.276 178.647C132.946 176.389 137.102 172.311 141.661 168.099C146.205 163.9 151.107 159.608 154.232 156.939L153.583 156.178ZM204.021 115.217L153.592 156.171L154.223 156.947L204.651 115.993L204.021 115.217ZM214.579 106.906L204.027 115.212L204.645 115.998L215.197 107.692L214.579 106.906ZM220.681 106.715C220.346 106.117 219.852 105.761 219.284 105.597C218.732 105.438 218.134 105.467 217.569 105.581C216.444 105.809 215.309 106.408 214.607 106.885L215.169 107.713C215.807 107.279 216.817 106.753 217.768 106.561C218.241 106.465 218.664 106.459 219.007 106.558C219.334 106.652 219.608 106.846 219.808 107.203L220.681 106.715ZM219.285 114.775C221.63 111.794 221.872 108.848 220.681 106.715L219.808 107.203C220.752 108.892 220.666 111.402 218.499 114.157L219.285 114.775ZM205.266 127.467C213.718 120.814 218.121 116.256 219.285 114.775L218.499 114.157C217.407 115.545 213.077 120.046 204.647 126.682L205.266 127.467ZM135.314 184.39C155.119 168.18 196.829 134.109 205.266 127.467L204.647 126.682C196.201 133.331 154.48 167.411 134.68 183.616L135.314 184.39ZM128.325 186.878C128.761 187.389 129.4 187.478 129.996 187.398C130.592 187.318 131.249 187.06 131.884 186.737C133.161 186.086 134.489 185.095 135.322 184.383L134.672 183.623C133.873 184.306 132.612 185.243 131.43 185.846C130.836 186.149 130.296 186.349 129.863 186.407C129.43 186.465 129.207 186.372 129.086 186.229L128.325 186.878Z" fill="#2A41C0"/>
<path d="M96.0588 60.224L96.1427 57.7565C94.2966 54.2353 92.7692 41.3375 101.282 36.6863C109.795 32.035 117.041 35.7398 118.854 40.2481C120.304 43.8547 118.647 46.3346 117.637 47.1238C117.462 47.4472 116.998 48.5842 116.538 50.5449C116.078 52.5055 113.616 54.5628 112.443 55.3463C112.149 54.3482 111.064 52.5326 109.074 53.2554C107.083 53.9783 106.768 58.4471 106.859 60.5912C106.024 61.0569 103.663 62.0636 100.901 62.3649C98.1382 62.6663 96.5218 61.0632 96.0588 60.224Z" fill="#EAEFF5" stroke="#1730BD" stroke-opacity="0.5"/>
<path d="M89.39 79.7985L89.8231 103.087L95.8576 105.743L103.428 99.2626L105.896 98.734C105.909 98.3262 106.92 97.4214 110.935 94.618C114.951 91.8146 117.122 92.7868 117.706 93.6233C118.508 94.0589 120.682 96.1744 122.63 110.94C124.578 125.706 119.949 126.383 134.566 115.211L144.738 107.743L151.083 102.72L146.335 98.2715C142.982 100.812 135.706 104.647 131.382 105.725C130.054 106.056 131.685 78.7866 123.857 74.8456L114.826 70.2512C113.997 70.6313 111.236 71.3541 106.832 71.2043C102.427 71.0546 99.3834 68.0929 98.4123 66.6308C98.0114 66.413 95.3535 66.5267 92.8232 68.8906C90.2929 71.2545 89.8879 77.1614 89.39 79.7985Z" fill="#EAEFF5"/>
<path d="M107.585 103.079L101.28 108.377L119.996 116.363C119.699 113.086 119.008 105.795 118.618 102.841C118.228 99.8883 117.364 97.6948 116.97 97.2731L116.724 96.9987L115.702 96.5444L114.204 96.6122L112.055 97.7185L107.668 100.632L107.585 103.079Z" fill="#EAEFF5"/>
<path d="M89.39 79.7985L89.8231 103.087L95.8576 105.743L103.428 99.2626L105.896 98.734C105.909 98.3262 106.92 97.4214 110.935 94.618C114.951 91.8146 117.122 92.7868 117.706 93.6233C118.508 94.0589 120.682 96.1744 122.63 110.94C124.578 125.706 119.949 126.383 134.566 115.211L144.738 107.743L151.083 102.72L146.335 98.2715C142.982 100.812 135.706 104.647 131.382 105.725C130.054 106.056 131.685 78.7866 123.857 74.8456L114.826 70.2512C113.997 70.6313 111.236 71.3541 106.832 71.2043C102.427 71.0546 99.3834 68.0929 98.4123 66.6308C98.0114 66.413 95.3535 66.5267 92.8232 68.8906C90.2929 71.2545 89.8879 77.1614 89.39 79.7985Z" stroke="#1730BD" stroke-opacity="0.5"/>
<path d="M107.585 103.079L101.28 108.377L119.996 116.363C119.699 113.086 119.008 105.795 118.618 102.841C118.228 99.8883 117.364 97.6948 116.97 97.2731L116.724 96.9987L115.702 96.5444L114.204 96.6122L112.055 97.7185L107.668 100.632L107.585 103.079Z" stroke="#1730BD" stroke-opacity="0.5"/>
<path d="M98.4124 66.6307L99.7607 63.0017" stroke="#1730BD" stroke-opacity="0.5"/>
<path d="M66.5 158.89L83 145.89" stroke="#1730BD" stroke-opacity="0.5"/>
<path d="M181.449 52.9335C178.728 52.9335 177.027 55.7116 177.027 57.4479C176.789 59.8788 178.048 61.2679 183.831 61.2679H217.848C220.343 61.7309 224.244 60.9207 226.693 58.1426C229.754 54.6699 229.136 51.8918 228.394 49.8081C226.859 45.5006 220.91 44.252 217.848 45.9883C217.054 43.6732 212.412 39.3903 206.963 39.3903C201.18 39.3903 197.097 43.2102 197.097 45.9883C196.304 45.2937 193.764 44.3214 189.954 45.9883C186.144 47.6551 185.191 51.776 185.191 53.6281C184.511 52.9336 182.47 52.9335 181.449 52.9335Z" stroke="#1730BD" stroke-opacity="0.5" stroke-dasharray="2 2"/>
<path d="M-66 254.39L32.7157 316.266L214.941 184.323L238.201 153.717L141 105.39L-66 254.39Z" stroke="#1730BD" stroke-opacity="0.5"/>
<path d="M238.813 188.89L59 297.89L238.813 153.717V188.89Z" fill="#2A41C0" stroke="#2A41C0"/>
<path d="M50.305 17.3959C47.0602 17.3959 45.0322 20.6791 45.0322 22.7312C44.7483 25.604 46.249 27.2456 53.1441 27.2456H93.7037C96.678 27.7928 101.329 26.8353 104.249 23.5521C107.899 19.448 107.162 16.1648 106.277 13.7023C104.448 8.61158 97.354 7.13592 93.7037 9.18791C92.7573 6.45189 87.2222 1.39026 80.7246 1.39026C73.8295 1.39026 68.9623 5.90471 68.9623 9.18791C68.016 8.36711 64.9875 7.21797 60.4448 9.18791C55.9022 11.1579 54.7665 16.028 54.7665 18.2168C53.9553 17.396 51.5217 17.3959 50.305 17.3959Z" stroke="#1730BD" stroke-opacity="0.5" stroke-dasharray="2 2"/>
</svg>
