<svg width="221" height="315" viewBox="0 0 221 315" fill="none" xmlns="http://www.w3.org/2000/svg">
<path fill-rule="evenodd" clip-rule="evenodd" d="M162.146 236.82C163.731 235.676 168.739 234.023 173.087 239.512C177.434 245.001 177.615 251.176 177.163 253.577C176.483 255.293 173.219 258.707 168.6 255.688C162.826 251.914 157.731 241.966 162.146 236.82ZM163.462 240.191C164.519 239.418 167.857 238.299 170.756 242.012C173.654 245.726 173.775 249.903 173.473 251.527C173.02 252.688 170.844 254.997 167.765 252.955C163.915 250.402 160.519 243.672 163.462 240.191Z" fill="white"/>
<path d="M173.087 239.512L173.479 239.202L173.087 239.512ZM162.146 236.82L161.854 236.414L161.806 236.449L161.767 236.494L162.146 236.82ZM177.163 253.577L177.627 253.761L177.645 253.717L177.654 253.67L177.163 253.577ZM168.6 255.688L168.326 256.106L168.6 255.688ZM170.756 242.012L171.15 241.705L170.756 242.012ZM163.462 240.191L163.167 239.788L163.119 239.823L163.08 239.868L163.462 240.191ZM173.473 251.527L173.939 251.709L173.956 251.665L173.965 251.619L173.473 251.527ZM167.765 252.955L167.488 253.372L167.765 252.955ZM173.479 239.202C171.223 236.354 168.757 235.32 166.613 235.18C164.494 235.042 162.732 235.78 161.854 236.414L162.439 237.225C163.145 236.716 164.68 236.056 166.548 236.178C168.391 236.298 170.602 237.181 172.695 239.823L173.479 239.202ZM177.654 253.67C178.129 251.152 177.931 244.823 173.479 239.202L172.695 239.823C176.937 245.179 177.102 251.2 176.671 253.485L177.654 253.67ZM168.326 256.106C170.775 257.707 172.929 257.628 174.57 256.861C176.171 256.113 177.244 254.73 177.627 253.761L176.698 253.393C176.402 254.14 175.503 255.322 174.147 255.955C172.832 256.569 171.044 256.688 168.873 255.269L168.326 256.106ZM161.767 236.494C159.378 239.278 159.618 243.286 161.088 246.954C162.565 250.64 165.343 254.157 168.326 256.106L168.873 255.269C166.082 253.445 163.426 250.101 162.016 246.582C160.599 243.047 160.499 239.507 162.526 237.145L161.767 236.494ZM171.15 241.705C169.62 239.745 167.934 239.018 166.451 238.92C164.995 238.824 163.781 239.338 163.167 239.788L163.758 240.595C164.2 240.271 165.184 239.839 166.385 239.918C167.561 239.996 168.993 240.567 170.362 242.32L171.15 241.705ZM173.965 251.619C174.288 249.88 174.152 245.55 171.15 241.705L170.362 242.32C173.157 245.901 173.262 249.926 172.981 251.436L173.965 251.619ZM167.488 253.372C169.168 254.485 170.667 254.439 171.818 253.894C172.927 253.368 173.669 252.399 173.939 251.709L173.007 251.345C172.824 251.816 172.252 252.582 171.39 252.99C170.569 253.379 169.441 253.467 168.041 252.538L167.488 253.372ZM163.08 239.868C161.431 241.819 161.613 244.603 162.601 247.105C163.596 249.624 165.468 252.032 167.488 253.372L168.041 252.538C166.212 251.325 164.461 249.092 163.531 246.737C162.594 244.366 162.55 242.044 163.844 240.514L163.08 239.868Z" fill="#1730BD" fill-opacity="0.5"/>
<path d="M177.02 254.393L137.376 277.18L145.179 284.36L185.136 259.699L177.02 254.393Z" fill="#EAEFF5" stroke="#1730BD" stroke-opacity="0.5"/>
<path fill-rule="evenodd" clip-rule="evenodd" d="M116.773 256.578C118.924 255.021 125.718 252.772 131.616 260.242C137.515 267.711 138.509 275.931 137.146 279.383C136.224 281.717 131.796 286.363 125.529 282.255C117.695 277.119 110.783 263.58 116.773 256.578ZM118.32 261.1C119.788 260.024 124.425 258.468 128.45 263.634C132.476 268.8 133.63 274.683 132.224 276.872C131.595 278.487 129.166 281.27 124.889 278.429C119.543 274.877 114.588 263.133 118.32 261.1Z" fill="white"/>
<path d="M131.616 260.242L132.009 259.932L131.616 260.242ZM116.773 256.578L116.48 256.173L116.432 256.207L116.393 256.253L116.773 256.578ZM137.146 279.383L137.611 279.566L137.146 279.383ZM125.529 282.255L125.803 281.837L125.529 282.255ZM118.32 261.1L118.56 261.539L118.589 261.523L118.616 261.503L118.32 261.1ZM132.224 276.872L131.804 276.602L131.777 276.644L131.758 276.691L132.224 276.872ZM124.889 278.429L124.613 278.845L124.889 278.429ZM132.009 259.932C128.978 256.094 125.678 254.713 122.822 254.526C119.991 254.341 117.641 255.332 116.48 256.173L117.066 256.983C118.055 256.267 120.178 255.355 122.757 255.524C125.31 255.691 128.356 256.92 131.224 260.551L132.009 259.932ZM137.611 279.566C138.345 277.707 138.418 274.673 137.59 271.203C136.759 267.714 135.004 263.725 132.009 259.932L131.224 260.551C134.127 264.228 135.819 268.083 136.618 271.435C137.421 274.805 137.309 277.607 136.681 279.199L137.611 279.566ZM125.255 282.673C128.527 284.818 131.385 284.704 133.554 283.687C135.683 282.69 137.106 280.844 137.611 279.566L136.681 279.199C136.264 280.255 135.013 281.9 133.13 282.782C131.288 283.645 128.797 283.8 125.803 281.837L125.255 282.673ZM116.393 256.253C113.217 259.965 113.518 265.334 115.502 270.302C117.494 275.287 121.242 280.042 125.255 282.673L125.803 281.837C121.982 279.332 118.356 274.75 116.431 269.931C114.499 265.095 114.338 260.193 117.153 256.903L116.393 256.253ZM128.845 263.327C126.752 260.641 124.459 259.66 122.459 259.527C120.486 259.397 118.845 260.096 118.025 260.697L118.616 261.503C119.264 261.028 120.675 260.411 122.393 260.525C124.085 260.637 126.124 261.462 128.056 263.942L128.845 263.327ZM132.645 277.142C133.064 276.49 133.265 275.61 133.293 274.621C133.322 273.624 133.175 272.474 132.858 271.245C132.224 268.785 130.898 265.962 128.845 263.327L128.056 263.942C130.028 266.473 131.292 269.173 131.89 271.494C132.189 272.655 132.319 273.709 132.294 274.592C132.269 275.483 132.087 276.16 131.804 276.602L132.645 277.142ZM124.613 278.845C126.86 280.338 128.718 280.405 130.128 279.778C131.5 279.168 132.342 277.948 132.69 277.054L131.758 276.691C131.478 277.41 130.791 278.389 129.722 278.864C128.691 279.323 127.195 279.36 125.166 278.012L124.613 278.845ZM118.081 260.661C116.898 261.305 116.496 262.671 116.52 264.174C116.545 265.699 117.003 267.531 117.736 269.379C119.195 273.062 121.821 276.991 124.613 278.845L125.166 278.012C122.611 276.315 120.086 272.596 118.665 269.011C117.957 267.224 117.542 265.518 117.52 264.158C117.498 262.777 117.876 261.911 118.56 261.539L118.081 260.661Z" fill="#1730BD" fill-opacity="0.5"/>
<path d="M173.661 178.524L157.978 234.102L160.787 233.79L176.619 178.107C177.432 175.247 180.802 174.017 183.267 175.679L200.744 187.467C202.321 188.531 203.328 190.257 203.477 192.154L209.172 264.694L211.669 263.757L206.428 192.413C206.193 189.216 204.338 186.361 201.513 184.846L182.619 174.717C179.103 172.832 174.744 174.684 173.661 178.524Z" fill="#EAEFF5" stroke="#1730BD" stroke-opacity="0.5"/>
<path d="M57.151 186.03L91.4884 253.768" stroke="#1730BD" stroke-opacity="0.5"/>
<path d="M67.9022 142.952C71.7062 145.89 73.2697 152.54 74.2062 156.39L71.0238 161.057C70.9197 160.017 70.3995 156.937 69.1508 152.941C67.9022 148.946 65.9252 147.53 65.0928 147.322L51.9822 138.27C51.8781 137.958 51.7325 137.021 51.9822 135.772C52.2319 134.524 53.543 134.004 54.1673 133.9C57.9132 136.189 65.8013 141.329 67.9022 142.952Z" fill="white"/>
<path d="M67.9022 142.952C71.7062 145.89 73.2697 152.54 74.2062 156.39L71.0238 161.057C70.9197 160.017 70.3995 156.937 69.1508 152.941C67.9022 148.946 65.9252 147.53 65.0928 147.322M67.9022 142.952C65.8013 141.329 57.9132 136.189 54.1673 133.9C53.543 134.004 52.2319 134.524 51.9822 135.772C51.7325 137.021 51.8781 137.958 51.9822 138.27L65.0928 147.322M67.9022 142.952C65.1553 143.452 64.8847 146.074 65.0928 147.322" stroke="#1730BD" stroke-opacity="0.5"/>
<path d="M102.24 124.847C104.237 126.595 106.61 134.732 107.546 138.582L105.361 142.952C105.257 141.912 104.737 138.832 103.488 134.836C102.24 130.84 100.263 129.425 99.4302 129.217L86.3196 120.165C86.2155 119.852 86.0699 118.916 86.3196 117.667C86.5693 116.419 87.8804 115.898 88.5047 115.794C92.2506 118.084 100.242 123.099 102.24 124.847Z" fill="white"/>
<path d="M102.24 124.847C104.237 126.595 106.61 134.732 107.546 138.582L105.361 142.952C105.257 141.912 104.737 138.832 103.488 134.836C102.24 130.84 100.263 129.425 99.4302 129.217M102.24 124.847C100.242 123.099 92.2506 118.084 88.5047 115.794C87.8804 115.898 86.5693 116.419 86.3196 117.667C86.0699 118.916 86.2155 119.852 86.3196 120.165L99.4302 129.217M102.24 124.847C99.4927 125.346 99.2221 127.969 99.4302 129.217" stroke="#1730BD" stroke-opacity="0.5"/>
<path d="M71.8224 186.342V215.061M71.8224 247.837V215.061M71.8224 215.061L49.9714 201.326L77.1291 218.494" stroke="#1730BD" stroke-opacity="0.5"/>
<path d="M71.8224 215.373L55.2781 225.674" stroke="#1730BD" stroke-opacity="0.5"/>
<path d="M171.386 176.562L155.481 232.229L157.666 234.102L173.904 177.979C174.694 175.249 177.838 173.988 180.296 175.414L197.867 185.609C199.665 186.653 200.826 188.523 200.963 190.597L205.738 262.821L209.172 264.694L203.612 190.955C203.38 187.873 201.641 185.104 198.966 183.555L180.517 172.874C176.998 170.837 172.503 172.653 171.386 176.562Z" fill="white" stroke="#1730BD" stroke-opacity="0.5"/>
<path d="M74.2594 211.075C71.522 207.685 69.1898 208.928 68.1918 209.634C65.0702 212.131 67.7987 218.735 71.4343 221.066C74.3427 222.931 76.398 220.822 76.8257 219.762C77.512 218.062 76.9967 214.465 74.2594 211.075Z" fill="white" stroke="#1730BD" stroke-opacity="0.5"/>
<path d="M166.094 251.895C165.095 247.9 172.337 232.958 176.083 225.986L161.1 234.727C158.082 238.889 151.985 248.149 151.735 251.895C151.423 256.578 166.094 269.064 173.274 272.185C180.453 275.307 182.326 270.312 181.702 267.503C181.078 264.694 167.343 256.89 166.094 251.895Z" fill="white"/>
<path d="M147.365 255.953C146.116 251.708 147.885 242.322 148.925 238.16L134.566 244.403C134.67 246.901 135.066 252.582 135.815 255.329C136.751 258.763 134.878 261.884 135.815 265.942C136.751 270 147.989 284.047 156.417 283.423C163.16 282.924 160.059 276.556 157.666 273.434C154.752 269.376 148.613 260.199 147.365 255.953Z" fill="white"/>
<path d="M166.094 251.895C165.095 247.9 172.337 232.958 176.083 225.986L161.1 234.727C158.082 238.889 151.985 248.149 151.735 251.895C151.423 256.578 166.094 269.064 173.274 272.185C180.453 275.307 182.326 270.312 181.702 267.503C181.078 264.694 167.343 256.89 166.094 251.895Z" stroke="#1730BD" stroke-opacity="0.5"/>
<path d="M147.365 255.953C146.116 251.708 147.885 242.322 148.925 238.16L134.566 244.403C134.67 246.901 135.066 252.582 135.815 255.329C136.751 258.763 134.878 261.884 135.815 265.942C136.751 270 147.989 284.047 156.417 283.423C163.16 282.924 160.059 276.556 157.666 273.434C154.752 269.376 148.613 260.199 147.365 255.953Z" stroke="#1730BD" stroke-opacity="0.5"/>
<path d="M154.232 245.964C155.377 246.693 158.477 248.087 161.724 247.837C164.97 247.587 166.406 246.484 166.718 245.964" stroke="#1730BD" stroke-opacity="0.5"/>
<path d="M134.878 252.52C136.023 253.248 139.124 254.642 142.37 254.392C145.617 254.143 146.74 253.04 147.052 252.52" stroke="#1730BD" stroke-opacity="0.5"/>
<path d="M158.29 165.427C154.544 162.68 148.405 152.837 145.804 148.259L154.544 141.391C157.25 146.49 163.472 157.686 166.718 161.681C170.776 166.676 176.707 168.549 177.332 168.861C177.831 169.111 170.881 172.503 167.343 174.168L165.158 170.11C164.429 169.694 162.036 168.174 158.29 165.427Z" fill="white" stroke="#1730BD" stroke-opacity="0.5"/>
<path d="M98.0437 131.714C99.542 125.971 109.281 120.789 113.964 118.916L139.873 114.858C141.225 115.274 144.181 116.668 145.179 118.916C146.428 121.725 148.925 127.032 150.486 131.714C151.735 135.46 154.336 139.102 155.481 140.455C155.481 141.079 154.732 142.952 151.735 145.449C148.738 147.947 145.284 148.571 143.931 148.571C143.515 151.276 142.682 157.998 142.682 163.242C142.682 168.486 143.515 176.665 143.931 180.099L133.317 183.532C129.884 185.093 121.768 188.215 116.773 188.215C111.779 188.215 109.706 190.39 104.599 189.776L96.1707 188.086V184.781V155.75C96.1707 150.132 96.5453 137.458 98.0437 131.714Z" fill="#EAEFF5"/>
<path d="M96.1707 184.781V155.75C96.1707 150.132 96.5453 137.458 98.0437 131.714C99.542 125.971 109.281 120.789 113.964 118.916L139.873 114.858C141.225 115.274 144.181 116.668 145.179 118.916C146.428 121.725 148.925 127.032 150.486 131.714C151.735 135.46 154.336 139.102 155.481 140.455C155.481 141.079 154.732 142.952 151.735 145.449C148.738 147.947 145.284 148.571 143.931 148.571C143.515 151.276 142.682 157.998 142.682 163.242C142.682 168.486 143.515 176.665 143.931 180.099L133.317 183.532C129.884 185.093 121.768 188.215 116.773 188.215C111.779 188.215 109.706 190.39 104.599 189.776L96.1707 188.086V184.781ZM96.1707 184.781V191.39" stroke="#1730BD" stroke-opacity="0.5"/>
<path d="M70.5738 159.184L100.229 139.831H105.535L75.2562 160.433L77.1291 178.538L72.4467 176.977L70.5738 159.184Z" fill="#EAEFF5"/>
<path d="M70.5738 159.184L100.229 139.831H105.535L75.2562 160.433M70.5738 159.184L75.2562 160.433M70.5738 159.184L72.4467 176.977L77.1291 178.538L75.2562 160.433" stroke="#1730BD" stroke-opacity="0.5"/>
<path d="M74.0075 177.602C83.9966 181.348 91.4884 188.527 93.9856 191.649L88.6789 193.522L65.5793 183.221H51.5322L54.0294 181.035C56.5267 178.33 64.0185 173.856 74.0075 177.602Z" fill="#EAEFF5" stroke="#1730BD" stroke-opacity="0.5"/>
<path d="M108.969 248.462C107.471 251.208 103.35 254.184 101.477 255.329L100.541 252.52L105.223 236.287L112.091 239.097C111.675 241.074 110.468 245.715 108.969 248.462Z" fill="white" stroke="#1730BD" stroke-opacity="0.5"/>
<path d="M88.0547 191.961L84.3088 194.458C74.0075 185.406 69.3251 185.094 63.3942 184.781C60.27 184.617 51.4369 186.539 49.9715 199.141C48.4106 212.563 56.0065 229.836 59.9605 235.351C65.0591 242.635 77.3165 255.891 90.552 254.393C103.787 252.894 103.559 236.287 101.79 228.171C103.142 229.212 106.971 230.856 107.721 236.6C108.657 243.779 105.848 250.335 102.726 254.08C99.844 257.539 90.2398 260.636 83.3723 257.826C76.5048 255.017 66.2037 250.335 55.9024 233.478C47.6615 219.993 44.6647 200.701 46.5377 193.21C46.8499 188.631 50.5333 179.475 62.7699 179.475C75.0065 179.475 84.725 187.799 88.0547 191.961Z" fill="white" stroke="#1730BD" stroke-opacity="0.5"/>
<path d="M110.218 182.596C105.473 181.597 102.414 170.942 101.477 165.74L114.9 161.369V170.11C114.9 171.983 115.212 171.358 118.334 171.358C120.831 171.358 138.936 169.798 148.613 171.358C156.355 172.607 163.285 176.457 165.782 178.226L152.359 188.215C150.278 186.03 145.492 181.285 142.994 179.787C139.873 177.914 116.149 183.845 110.218 182.596Z" fill="white" stroke="#1730BD" stroke-opacity="0.5"/>
<path d="M114.9 165.74H94.2978C93.9856 155.23 92.737 136.085 98.0437 132.339C101.018 130.24 106.722 128.905 111.779 137.333C116.274 144.825 115.421 159.601 114.9 165.74Z" fill="#EAEFF5" stroke="#1730BD" stroke-opacity="0.5"/>
<path d="M119.27 259.699L118.958 247.837L123.641 246.589V259.699C124.057 260.844 125.326 264.319 127.074 269.064C128.822 273.809 125.722 272.81 124.265 271.873L119.27 259.699Z" fill="white" stroke="#1730BD" stroke-opacity="0.5"/>
<path d="M130.196 270.625L128.368 272.224C128.042 272.509 127.533 272.384 127.375 271.981L122.704 260.011V246.589H126.138V260.011L130.196 270.625Z" fill="#EAEFF5" stroke="#1730BD" stroke-opacity="0.5"/>
<path d="M77.4413 213.812V221.105C77.4413 222.197 78.0124 223.21 78.9472 223.775L117.722 247.231C125.64 252.02 135.558 252.039 143.493 247.279L207.656 208.79C208.596 208.226 209.172 207.21 209.172 206.113V194.146L121.744 218.164C120.187 218.592 118.562 218.713 116.958 218.522L77.4413 213.812Z" fill="white" stroke="#1730BD" stroke-opacity="0.5"/>
<path d="M85.1294 197.268L75.9302 203.278C72.0398 205.82 72.1908 211.57 76.2093 213.904L116.798 237.477C124.509 241.957 134.025 241.983 141.762 237.547L211.119 197.779C215.337 195.361 215.293 189.262 211.042 186.904L183.792 171.788C181.909 170.744 179.621 170.743 177.738 171.787L122.57 202.346C119.119 204.257 114.967 204.425 111.373 202.799L97.1052 196.345C93.2177 194.586 88.7014 194.935 85.1294 197.268Z" fill="white" stroke="#1730BD" stroke-opacity="0.5"/>
<path d="M85.1294 192.898L75.9302 198.908C72.0398 201.45 72.1908 207.199 76.2093 209.533L116.798 233.107C124.509 237.587 134.025 237.613 141.762 233.177L211.119 193.409C215.337 190.991 215.293 184.892 211.042 182.533L183.792 167.418C181.909 166.374 179.621 166.373 177.738 167.416L122.57 197.976C119.119 199.887 114.967 200.055 111.373 198.429L97.1052 191.975C93.2177 190.216 88.7014 190.564 85.1294 192.898Z" fill="#2A41C0" stroke="#2A41C0"/>
<path d="M136.439 122.662C141.434 121.413 140.185 104.244 138.312 95.1918C138.312 93.6935 135.294 91.4459 134.254 91.1338C133.63 92.2784 131.632 93.8808 129.884 94.8797C128.136 95.8786 123.328 95.6081 121.143 95.1918C121.247 95.6081 120.769 98.5631 120.519 100.811C120.269 103.058 119.791 104.348 119.27 105.805C118.022 104.869 114.588 104.557 113.339 105.805C112.091 107.054 115.733 111.528 116.773 112.985C115.941 114.858 114.089 118.916 113.339 120.164C112.403 121.725 112.403 122.662 116.773 126.408C121.143 130.154 124.889 129.841 128.635 128.905C132.027 128.057 132.069 122.662 132.069 122.662C132.069 122.662 133.942 123.286 136.439 122.662Z" fill="white" stroke="#1730BD" stroke-opacity="0.5"/>
<path d="M137.376 195.395C144.867 199.869 159.976 208.942 160.475 209.442L187.321 180.099L173.586 172.919L137.376 193.522V195.395Z" fill="white" stroke="#2A41C0"/>
<path d="M149.55 196.956L162.036 204.759L168.279 191.961V185.094L149.55 196.956Z" fill="#2A41C0" stroke="#2A41C0"/>
<path d="M133.942 104.557L139.451 100.976C139.811 100.742 140.293 100.932 140.38 101.352C140.831 103.528 141.123 106.741 139.249 107.991C136.439 109.864 134.67 106.014 133.942 104.557L132.693 105.181C133.213 106.95 134.067 111.05 132.069 112.049C129.572 113.297 126.762 110.488 125.514 108.615C124.947 107.765 124.923 107.477 125.008 107.388C125.073 107.32 125.201 107.366 125.201 107.366L132.693 105.181L133.942 104.557Z" fill="white"/>
<path d="M119.583 107.991L125.201 107.366M125.201 107.366L132.693 105.181M125.201 107.366C125.201 107.366 124.515 107.117 125.514 108.615C126.762 110.488 129.572 113.297 132.069 112.049C134.067 111.05 133.213 106.95 132.693 105.181M133.942 104.557L139.451 100.976C139.811 100.742 140.293 100.932 140.38 101.352C140.831 103.528 141.123 106.741 139.249 107.991C136.439 109.864 134.67 106.014 133.942 104.557ZM133.942 104.557L132.693 105.181" stroke="#1730BD" stroke-opacity="0.5"/>
<path d="M82.1986 227.221L66.5157 282.799L69.3252 282.487L85.1571 226.804C85.9702 223.944 89.3397 222.713 91.8045 224.376L109.281 236.164C110.859 237.228 111.865 238.954 112.014 240.851L117.71 313.39L120.207 312.454L114.965 241.11C114.73 237.912 112.876 235.057 110.05 233.543L91.1568 223.414C87.6403 221.529 83.2822 223.381 82.1986 227.221Z" fill="#EAEFF5" stroke="#1730BD" stroke-opacity="0.5"/>
<path d="M79.9235 225.258L64.0185 280.926L66.2036 282.799L82.4423 226.676C83.2321 223.946 86.3758 222.684 88.8336 224.11L106.405 234.306C108.203 235.349 109.364 237.219 109.501 239.294L114.276 311.517L117.71 313.39L112.15 239.652C111.918 236.57 110.179 233.8 107.504 232.252L89.0545 221.57C85.5361 219.533 81.0404 221.349 79.9235 225.258Z" fill="white" stroke="#1730BD" stroke-opacity="0.5"/>
<path d="M202.617 159.184L163.597 181.035L160.475 209.442L198.558 187.903L202.617 159.184Z" fill="white" stroke="#1730BD" stroke-opacity="0.5"/>
<path d="M110.53 106.43C112.528 111.424 115.524 112.881 116.773 112.985C116.045 111.736 114.588 108.989 114.588 107.99C114.588 106.742 115.525 106.43 117.71 107.054C119.895 107.678 119.583 109.551 121.456 105.493C122.954 102.247 122.496 98.5217 122.08 97.0649C123.849 97.5852 128.073 98.3136 130.82 97.0649C133.567 95.8163 134.67 93.8393 134.878 93.0069C135.086 93.1109 135.69 93.5687 136.439 94.5677C137.188 95.5666 138.208 97.0649 138.624 97.6892C138.728 97.273 138.811 95.9412 138.312 93.9434C137.688 91.4461 134.566 88.6367 132.693 87.7002C130.82 86.7637 129.259 84.8908 122.08 85.5151C114.9 86.1394 111.466 90.1974 109.906 93.319C108.345 96.4406 108.033 100.186 110.53 106.43Z" fill="#EAEFF5" stroke="#1730BD" stroke-opacity="0.5"/>
<path d="M186.615 93.2998L179.723 89.348C179.395 86.6037 179.264 80.5881 181.364 78.4805C183.989 75.8459 189.896 74.858 190.553 70.5768C191.209 66.2957 190.881 62.3438 187.271 58.7213C185.054 56.4964 183.456 55.638 182.02 55.4595C181.233 55.748 181.255 57.0956 181.364 57.7334L177.098 61.0266C176.77 61.5754 175.588 62.3438 173.488 61.0266C171.388 59.7093 170.425 57.6236 170.206 56.7454C170.206 53.8713 171.218 48.9011 174.801 47.1284C174.81 47.1237 174.819 47.1191 174.829 47.1145L181.364 43.902C185.042 42.3056 192.183 44.4289 197.171 50.4884C203.406 58.0627 204.39 64.3198 204.39 68.2716C204.39 70.6351 204.062 75.5166 201.437 78.1512C198.812 80.7857 194.491 83.0909 193.178 83.4203C192.735 83.5684 192.159 83.7852 191.537 84.054V90.6653L186.615 93.2998Z" fill="white"/>
<path d="M179.395 104.826C177.289 101.203 177.9 98.2396 179.067 97.581L184.318 94.6171C185.74 94.3976 188.256 94.2878 190.225 97.9103C192.139 101.433 191.319 104.167 190.881 104.826L185.666 108.097C185.654 108.105 185.642 108.112 185.63 108.119C184.514 108.778 181.233 107.987 179.395 104.826Z" fill="white"/>
<path d="M193.178 83.4203C194.819 82.8488 196.579 80.1662 197.39 78.1512C198.013 76.604 198.757 73.4909 198.757 70.9061C198.757 64.9784 195.804 59.2702 194.163 56.7454C191.865 53.3424 185.565 47.3269 178.739 46.5365C177.169 46.3548 175.87 46.599 174.801 47.1284M193.178 83.4203C194.491 83.0909 198.812 80.7857 201.437 78.1512C204.062 75.5166 204.39 70.6351 204.39 68.2716C204.39 64.3198 203.406 58.0627 197.171 50.4884C192.183 44.4289 185.042 42.3056 181.364 43.902L174.801 47.1284M193.178 83.4203C192.735 83.5684 192.159 83.7852 191.537 84.054M186.615 93.2998C186.615 91.9825 186.321 89.2605 186.943 87.7014C187.599 86.0548 189.856 84.7812 191.537 84.054M186.615 93.2998L179.723 89.348C179.395 86.6037 179.264 80.5881 181.364 78.4805C183.989 75.8459 189.896 74.858 190.553 70.5768C191.209 66.2957 190.881 62.3438 187.271 58.7213C185.054 56.4964 183.456 55.638 182.02 55.4595M186.615 93.2998L191.537 90.6653V84.054M177.098 61.0266C177.098 59.4897 177.557 56.2844 179.395 55.7575C180.281 55.5033 181.119 55.3473 182.02 55.4595M177.098 61.0266C176.77 61.5754 175.588 62.3438 173.488 61.0266C171.388 59.7093 170.425 57.6236 170.206 56.7454C170.206 53.8713 171.218 48.9011 174.801 47.1284M177.098 61.0266L181.364 57.7334C181.255 57.0956 181.233 55.748 182.02 55.4595M179.067 97.581C177.9 98.2396 177.289 101.203 179.395 104.826C181.233 107.987 184.514 108.778 185.63 108.119M179.067 97.581C180.051 97.0252 183.333 96.9223 185.302 100.545C187.27 104.165 186.615 107.538 185.63 108.119M179.067 97.581L184.318 94.6171C185.74 94.3976 188.256 94.2878 190.225 97.9103C192.139 101.433 191.319 104.167 190.881 104.826L185.63 108.119" stroke="#1730BD" stroke-opacity="0.5"/>
<path d="M186 114.39L186 164.39" stroke="#1730BD" stroke-opacity="0.5" stroke-dasharray="2 2"/>
<path fill-rule="evenodd" clip-rule="evenodd" d="M28.2141 150.851C29.4453 149.963 33.3349 148.679 36.7118 152.943C40.0887 157.206 40.2294 162.002 39.8776 163.867C39.35 165.2 36.8146 167.852 33.2267 165.507C28.7418 162.576 24.7845 154.848 28.2141 150.851ZM29.2362 153.47C30.057 152.87 32.6501 152.001 34.9014 154.885C37.1526 157.769 37.2464 161.014 37.0119 162.275C36.6602 163.177 34.9699 164.971 32.5779 163.384C29.588 161.402 26.9498 156.174 29.2362 153.47Z" fill="white"/>
<path d="M36.7118 152.943L36.4074 153.184L36.7118 152.943ZM28.2141 150.851L27.9869 150.536L27.9495 150.563L27.9194 150.598L28.2141 150.851ZM39.8776 163.867L40.2387 164.01L40.2524 163.976L40.2593 163.939L39.8776 163.867ZM33.2267 165.507L33.0142 165.832L33.2267 165.507ZM34.9014 154.885L34.5952 155.124L34.9014 154.885ZM29.2362 153.47L29.0068 153.157L28.9695 153.184L28.9397 153.22L29.2362 153.47ZM37.0119 162.275L37.3737 162.417L37.387 162.382L37.3937 162.346L37.0119 162.275ZM32.5779 163.384L32.3633 163.708L32.5779 163.384ZM37.0162 152.701C35.2645 150.49 33.3491 149.686 31.6836 149.578C30.0377 149.47 28.6694 150.044 27.9869 150.536L28.4413 151.166C28.99 150.77 30.1821 150.258 31.6331 150.353C33.0644 150.446 34.7823 151.132 36.4074 153.184L37.0162 152.701ZM40.2593 163.939C40.6281 161.984 40.4747 157.068 37.0162 152.701L36.4074 153.184C39.7026 157.344 39.8307 162.021 39.496 163.795L40.2593 163.939ZM33.0142 165.832C34.916 167.075 36.5891 167.013 37.8641 166.418C39.1077 165.837 39.9406 164.763 40.2387 164.01L39.5165 163.724C39.287 164.304 38.5884 165.222 37.5354 165.714C36.5138 166.191 35.1252 166.283 33.4391 165.182L33.0142 165.832ZM27.9194 150.598C26.0637 152.761 26.25 155.874 27.3919 158.723C28.5392 161.586 30.6973 164.318 33.0142 165.832L33.4391 165.182C31.2711 163.765 29.2081 161.167 28.1129 158.434C27.0124 155.688 26.9349 152.939 28.5089 151.104L27.9194 150.598ZM35.2075 154.646C34.0194 153.124 32.7094 152.56 31.558 152.483C30.4266 152.409 29.4841 152.808 29.0068 153.157L29.4656 153.784C29.8091 153.532 30.5736 153.197 31.5067 153.258C32.4199 153.319 33.5321 153.762 34.5952 155.124L35.2075 154.646ZM37.3937 162.346C37.6448 160.996 37.539 157.633 35.2075 154.646L34.5952 155.124C36.7662 157.905 36.848 161.032 36.6301 162.204L37.3937 162.346ZM32.3633 163.708C33.6678 164.573 34.8325 164.537 35.7263 164.114C36.5878 163.705 37.1644 162.953 37.3737 162.417L36.6501 162.134C36.5076 162.499 36.0633 163.094 35.3937 163.412C34.7564 163.714 33.8801 163.782 32.7926 163.061L32.3633 163.708ZM28.9397 153.22C27.6584 154.735 27.7997 156.897 28.5672 158.84C29.3401 160.797 30.7939 162.667 32.3633 163.708L32.7926 163.061C31.372 162.119 30.0118 160.384 29.2897 158.555C28.5622 156.713 28.5277 154.91 29.5328 153.721L28.9397 153.22Z" fill="#1730BD" fill-opacity="0.5"/>
<path d="M39.7666 164.5L8.974 182.2L15.0355 187.777L46.0706 168.622L39.7666 164.5Z" fill="#EAEFF5" stroke="#1730BD" stroke-opacity="0.5" stroke-width="0.776728"/>
<path fill-rule="evenodd" clip-rule="evenodd" d="M-7.02848 166.198C-5.35815 164.989 -0.0809612 163.242 4.50052 169.044C9.08201 174.846 9.85406 181.231 8.79566 183.911C8.07981 185.724 4.63998 189.333 -0.227844 186.142C-6.31263 182.153 -11.6816 171.637 -7.02848 166.198ZM-5.82668 169.711C-4.68672 168.875 -1.08518 167.666 2.04156 171.679C5.16829 175.691 6.06445 180.261 4.97287 181.961C4.48432 183.215 2.59767 185.377 -0.724483 183.17C-4.87718 180.412 -8.72572 171.29 -5.82668 169.711Z" fill="white"/>
<path d="M4.50052 169.044L4.19573 169.285L4.50052 169.044ZM-7.02848 166.198L-7.25616 165.883L-7.29358 165.91L-7.3236 165.945L-7.02848 166.198ZM8.79566 183.911L9.15689 184.054L8.79566 183.911ZM-0.227844 186.142L-0.440762 186.467L-0.227844 186.142ZM2.04156 171.679L2.3479 171.44L2.04156 171.679ZM-5.82668 169.711L-5.64092 170.052L-5.61803 170.039L-5.59701 170.024L-5.82668 169.711ZM4.97287 181.961L4.64605 181.751L4.62509 181.784L4.611 181.82L4.97287 181.961ZM-0.724483 183.17L-0.509587 182.847L-0.724483 183.17ZM4.80532 168.803C2.4514 165.822 -0.112028 164.749 -2.33033 164.604C-4.52892 164.461 -6.35411 165.231 -7.25616 165.883L-6.8008 166.513C-6.03253 165.957 -4.38395 165.248 -2.381 165.379C-0.397747 165.509 1.96816 166.464 4.19573 169.285L4.80532 168.803ZM9.15689 184.054C9.72716 182.61 9.78345 180.253 9.14082 177.558C8.49472 174.848 7.13206 171.75 4.80532 168.803L4.19573 169.285C6.45047 172.14 7.76458 175.135 8.38527 177.738C9.00945 180.356 8.92257 182.532 8.43443 183.769L9.15689 184.054ZM-0.440762 186.467C2.10116 188.133 4.32071 188.044 6.00567 187.255C7.65898 186.48 8.76491 185.047 9.15689 184.054L8.43443 183.769C8.11056 184.589 7.13864 185.866 5.67612 186.552C4.24525 187.222 2.31098 187.342 -0.0149269 185.817L-0.440762 186.467ZM-7.3236 165.945C-9.79039 168.829 -9.55723 172.999 -8.0155 176.858C-6.46844 180.73 -3.5576 184.424 -0.440762 186.467L-0.0149269 185.817C-2.98287 183.872 -5.79889 180.313 -7.29421 176.57C-8.79487 172.814 -8.91964 169.006 -6.73337 166.45L-7.3236 165.945ZM2.3479 171.44C0.722111 169.354 -1.05887 168.592 -2.61193 168.489C-4.14496 168.387 -5.41947 168.93 -6.05634 169.397L-5.59701 170.024C-5.09393 169.655 -3.99769 169.176 -2.66327 169.264C-1.34889 169.351 0.234262 169.991 1.73522 171.918L2.3479 171.44ZM5.29969 182.171C5.62503 181.664 5.78155 180.981 5.80327 180.212C5.82515 179.438 5.71126 178.545 5.46516 177.59C4.97289 175.68 3.94259 173.487 2.3479 171.44L1.73522 171.918C3.26726 173.884 4.24841 175.981 4.71301 177.784C4.94534 178.685 5.04624 179.504 5.02685 180.19C5.0073 180.882 4.8665 181.408 4.64605 181.751L5.29969 182.171ZM-0.93938 183.494C0.806507 184.654 2.24925 184.705 3.34455 184.218C4.41005 183.745 5.06401 182.797 5.33474 182.102L4.611 181.82C4.39317 182.379 3.85954 183.139 3.02904 183.509C2.22834 183.865 1.06668 183.894 -0.509587 182.847L-0.93938 183.494ZM-6.01244 169.37C-6.93115 169.87 -7.24355 170.93 -7.22478 172.098C-7.20574 173.283 -6.84989 174.706 -6.28102 176.141C-5.14705 179.002 -3.10759 182.053 -0.93938 183.494L-0.509587 182.847C-2.49407 181.528 -4.45523 178.639 -5.55895 175.855C-6.10892 174.467 -6.43118 173.142 -6.44815 172.086C-6.4654 171.013 -6.17172 170.341 -5.64092 170.052L-6.01244 169.37Z" fill="#1730BD" fill-opacity="0.5"/>
<path d="M37.1577 105.572L24.9764 148.741L27.1586 148.498L39.4557 105.248C40.0873 103.027 42.7044 102.071 44.6189 103.362L58.1937 112.518C59.4192 113.345 60.2008 114.685 60.3165 116.159L64.7402 172.502L66.6798 171.775L62.6086 116.36C62.4261 113.876 60.9858 111.659 58.791 110.482L44.1159 102.615C41.3845 101.151 37.9994 102.589 37.1577 105.572Z" fill="#EAEFF5" stroke="#1730BD" stroke-opacity="0.5" stroke-width="0.776728"/>
<path d="M35.3906 104.047L23.0367 147.286L24.734 148.741L37.347 105.148C37.9605 103.028 40.4023 102.048 42.3113 103.156L55.9592 111.075C57.3559 111.885 58.2576 113.338 58.3641 114.949L62.0731 171.047L64.7402 172.502L60.4218 115.227C60.2413 112.833 58.8909 110.682 56.813 109.479L42.4829 101.183C39.7501 99.6007 36.2581 101.011 35.3906 104.047Z" fill="white" stroke="#1730BD" stroke-opacity="0.5" stroke-width="0.776728"/>
<path d="M31.2805 162.561C30.5046 159.457 36.1297 147.852 39.0393 142.437L27.4011 149.225C25.0573 152.458 20.3212 159.651 20.1272 162.561C19.8848 166.198 31.2805 175.896 36.8571 178.321C42.4337 180.745 43.8885 176.866 43.4036 174.684C42.9186 172.502 32.2503 166.44 31.2805 162.561Z" fill="white"/>
<path d="M16.7328 165.713C15.7629 162.415 17.1369 155.125 17.9451 151.893L6.79181 156.742C6.87263 158.681 7.17976 163.094 7.76167 165.228C8.48905 167.895 7.03428 170.32 7.76167 173.472C8.48905 176.624 17.2177 187.534 23.7641 187.049C29.0013 186.662 26.5929 181.715 24.734 179.291C22.471 176.139 17.7026 169.01 16.7328 165.713Z" fill="white"/>
<path d="M31.2805 162.561C30.5046 159.457 36.1297 147.852 39.0393 142.437L27.4011 149.225C25.0573 152.458 20.3212 159.651 20.1272 162.561C19.8848 166.198 31.2805 175.896 36.8571 178.321C42.4337 180.745 43.8885 176.866 43.4036 174.684C42.9186 172.502 32.2503 166.44 31.2805 162.561Z" stroke="#1730BD" stroke-opacity="0.5" stroke-width="0.776728"/>
<path d="M16.7328 165.713C15.7629 162.415 17.1369 155.125 17.9451 151.893L6.79181 156.742C6.87263 158.681 7.17976 163.094 7.76167 165.228C8.48905 167.895 7.03428 170.32 7.76167 173.472C8.48905 176.624 17.2177 187.534 23.7641 187.049C29.0013 186.662 26.5929 181.715 24.734 179.291C22.471 176.139 17.7026 169.01 16.7328 165.713Z" stroke="#1730BD" stroke-opacity="0.5" stroke-width="0.776728"/>
<path d="M22.0669 157.954C22.9559 158.52 25.3644 159.603 27.886 159.409C30.4076 159.215 31.5229 158.358 31.7654 157.954" stroke="#1730BD" stroke-opacity="0.5" stroke-width="0.776728"/>
<path d="M7.0343 163.046C7.92333 163.612 10.3318 164.695 12.8534 164.501C15.375 164.307 16.2478 163.45 16.4903 163.046" stroke="#1730BD" stroke-opacity="0.5" stroke-width="0.776728"/>
<path d="M25.2189 95.399C22.3094 93.2654 17.541 85.6198 15.5204 82.0636L22.3094 76.7295C24.4107 80.6897 29.2438 89.386 31.7654 92.4895C34.9174 96.3689 39.5242 97.8237 40.0091 98.0661C40.397 98.2601 34.9982 100.895 32.2503 102.188L30.5531 99.036C29.9873 98.7127 28.1285 97.5327 25.2189 95.399Z" fill="white" stroke="#1730BD" stroke-opacity="0.5" stroke-width="0.776728"/>
<path d="M-21.5762 69.213C-20.4124 64.7518 -12.8476 60.7269 -9.21069 59.2721L10.9136 56.1201C11.9643 56.4434 14.2596 57.5264 15.0355 59.2721C16.0053 61.4543 17.945 65.5761 19.1573 69.213C20.1272 72.1226 22.1477 74.9513 23.0367 76.002C23.0367 76.4869 22.4548 77.9417 20.1272 79.8814C17.7995 81.8211 15.1163 82.306 14.0656 82.306C13.7423 84.4073 13.0958 89.6283 13.0958 93.7017C13.0958 97.775 13.7423 104.128 14.0656 106.795L5.82193 109.462C3.15485 110.674 -3.14915 113.099 -7.02854 113.099C-10.9079 113.099 -12.5176 114.788 -16.4845 114.311L-23.031 112.998V110.432V87.8826C-23.031 83.5183 -22.7401 73.6743 -21.5762 69.213Z" fill="white"/>
<path d="M-23.031 110.432V87.8826C-23.031 83.5183 -22.7401 73.6743 -21.5762 69.213C-20.4124 64.7518 -12.8476 60.7269 -9.21069 59.2721L10.9136 56.1201C11.9643 56.4434 14.2596 57.5264 15.0355 59.2721C16.0053 61.4543 17.945 65.5761 19.1573 69.213C20.1272 72.1226 22.1477 74.9513 23.0367 76.002C23.0367 76.4869 22.4548 77.9417 20.1272 79.8814C17.7995 81.8211 15.1163 82.306 14.0656 82.306C13.7423 84.4073 13.0958 89.6283 13.0958 93.7017C13.0958 97.775 13.7423 104.128 14.0656 106.795L5.82193 109.462C3.15485 110.674 -3.14915 113.099 -7.02854 113.099C-10.9079 113.099 -12.5176 114.788 -16.4845 114.311L-23.031 112.998V110.432ZM-23.031 110.432V115.565" stroke="#1730BD" stroke-opacity="0.5" stroke-width="0.776728"/>
<path d="M-12.1202 108.734C-15.8056 107.959 -18.1817 99.6826 -18.9091 95.6415L-8.48327 92.2471V99.036C-8.48327 100.491 -8.24081 100.006 -5.81619 100.006C-3.8765 100.006 10.1863 98.7935 17.7026 100.006C23.7156 100.976 29.0983 103.966 31.038 105.34L20.6121 113.099C18.9957 111.402 15.278 107.716 13.3383 106.552C10.9137 105.098 -7.51342 109.704 -12.1202 108.734Z" fill="white" stroke="#1730BD" stroke-opacity="0.5" stroke-width="0.776728"/>
<path d="M-5.08884 168.623L-5.3313 159.409L-1.69437 158.439V168.623C-1.37109 169.512 -0.38508 172.211 0.972705 175.896C2.33049 179.582 -0.0779624 178.806 -1.20945 178.079L-5.08884 168.623Z" fill="white" stroke="#2A41C0" stroke-width="0.776728"/>
<path d="M3.39733 177.109L1.97755 178.351C1.7246 178.572 1.32867 178.476 1.20648 178.162L-2.42175 168.865V158.439H0.245325V168.865L3.39733 177.109Z" fill="#EAEFF5" stroke="#1730BD" stroke-opacity="0.5" stroke-width="0.776728"/>
<path d="M-37.5787 132.981V138.645C-37.5787 139.493 -37.1351 140.28 -36.409 140.719L-6.29154 158.938C-0.141354 162.658 7.56192 162.672 13.7259 158.975L63.5628 129.08C64.2932 128.642 64.7401 127.853 64.7401 127.001V117.705L-3.16766 136.361C-4.37703 136.693 -5.63936 136.788 -6.88472 136.639L-37.5787 132.981Z" fill="white" stroke="#1730BD" stroke-opacity="0.5" stroke-width="0.776728"/>
<path d="M-31.6071 120.131L-38.7524 124.799C-41.7742 126.773 -41.6569 131.239 -38.5355 133.052L-7.00958 151.362C-1.0195 154.841 6.37129 154.862 12.3807 151.416L66.2523 120.527C69.5285 118.649 69.4949 113.912 66.1924 112.08L45.0267 100.34C43.5644 99.5286 41.7875 99.5281 40.3248 100.338L-2.52616 124.074C-5.20663 125.559 -8.43111 125.69 -11.2229 124.427L-22.3051 119.414C-25.3247 118.048 -28.8326 118.318 -31.6071 120.131Z" fill="white" stroke="#1730BD" stroke-opacity="0.5" stroke-width="0.776728"/>
<path d="M-31.6071 116.736L-38.7524 121.404C-41.7742 123.379 -41.6569 127.844 -38.5355 129.657L-7.00958 147.968C-1.0195 151.447 6.37129 151.468 12.3807 148.022L66.2523 117.133C69.5285 115.255 69.4949 110.518 66.1924 108.686L45.0267 96.9453C43.5644 96.1342 41.7875 96.1337 40.3248 96.9439L-2.52616 120.68C-5.20663 122.165 -8.43111 122.295 -11.2229 121.032L-22.3051 116.019C-25.3247 114.653 -28.8326 114.924 -31.6071 116.736Z" fill="#EAEFF5" stroke="#1730BD" stroke-opacity="0.5" stroke-width="0.776728"/>
<path d="M8.2466 62.1817C12.126 61.2119 11.1561 47.8765 9.70137 40.8451C9.70137 39.6813 7.35756 37.9356 6.54935 37.6931C6.06443 38.5821 4.51267 39.8268 3.15489 40.6027C1.7971 41.3785 -1.93681 41.1684 -3.63404 40.8451C-3.55322 41.1684 -3.92499 43.4637 -4.11896 45.2094C-4.31293 46.9552 -4.68471 47.9573 -5.08881 49.0888C-6.05865 48.3614 -8.72571 48.119 -9.69557 49.0888C-10.6654 50.0587 -7.8367 53.5339 -7.02849 54.6654C-7.67505 56.1202 -9.11366 59.2722 -9.69557 60.242C-10.423 61.4544 -10.423 62.1817 -7.02849 65.0913C-3.63402 68.0008 -0.724498 67.7584 2.18506 67.031C4.81955 66.3724 4.85213 62.1817 4.85213 62.1817C4.85213 62.1817 6.30689 62.6667 8.2466 62.1817Z" fill="white" stroke="#1730BD" stroke-opacity="0.5" stroke-width="0.776728"/>
<path d="M8.974 118.676C14.7931 122.151 26.5282 129.198 26.9162 129.586L47.7679 106.795L37.0996 101.218L8.974 117.221V118.676Z" fill="white" stroke="#1730BD" stroke-opacity="0.5" stroke-width="0.776728"/>
<path d="M18.4299 119.888L28.1284 125.949L32.9776 116.008V110.674L18.4299 119.888Z" fill="#2A41C0" stroke="#1730BD" stroke-opacity="0.5" stroke-width="0.776728"/>
<path d="M59.6485 90.55L29.3408 107.522L26.9161 129.586L56.4965 112.857L59.6485 90.55Z" fill="white" stroke="#1730BD" stroke-opacity="0.5" stroke-width="0.776728"/>
<path d="M-11.8777 49.5739C-10.326 53.4533 -7.99835 54.5848 -7.0285 54.6656C-7.59424 53.6958 -8.72572 51.5621 -8.72572 50.7863C-8.72572 49.8164 -7.99833 49.5739 -6.3011 50.0589C-4.60387 50.5438 -4.84633 51.9986 -3.39156 48.8466C-2.22774 46.325 -2.58335 43.4316 -2.90664 42.3001C-1.53269 42.7042 1.74863 43.2699 3.88229 42.3001C6.01595 41.3303 6.87265 39.7947 7.03429 39.1481C7.19593 39.2289 7.66469 39.5845 8.2466 40.3604C8.82851 41.1363 9.62055 42.3001 9.94383 42.785C10.0247 42.4617 10.0893 41.4272 9.70137 39.8755C9.21645 37.9358 6.79183 35.7536 5.33706 35.0262C3.88229 34.2989 2.66998 32.8441 -2.90664 33.329C-8.48325 33.8139 -11.1504 36.9659 -12.3627 39.3905C-13.575 41.8152 -13.8174 44.7247 -11.8777 49.5739Z" fill="white" stroke="#1730BD" stroke-opacity="0.5" stroke-width="0.776728"/>
</svg>
