<svg width="36" height="33" viewBox="0 0 36 33" fill="none" xmlns="http://www.w3.org/2000/svg">
<path fill-rule="evenodd" clip-rule="evenodd" d="M5.97222 0C2.67386 0 0 2.67386 0 5.97223V20.8109C0 24.1093 2.67386 26.7832 5.97222 26.7832H7.16634L5.99098 31.1757C5.67989 32.3383 7.08898 33.1791 7.96443 32.3533L13.2589 27.3592C13.4405 27.1879 13.5518 26.9888 13.6036 26.7832H29.0529C32.3512 26.7832 35.0251 24.1093 35.0251 20.8109V5.97222C35.0251 2.67386 32.3512 0 29.0529 0H5.97222Z" fill="white"/>
<path d="M12.7778 13.7917C12.7778 12.8022 11.9756 12 10.9861 12H9.79166C8.80215 12 7.99999 12.8022 7.99999 13.7917V13.7917C7.99999 14.7812 8.80215 15.5833 9.79166 15.5833H10.9861C11.9756 15.5833 12.7778 14.7812 12.7778 13.7917V13.7917Z" fill="#1730BD"/>
<path d="M19.9445 13.7917C19.9445 12.8022 19.1424 12 18.1529 12H16.9584C15.9689 12 15.1667 12.8022 15.1667 13.7917V13.7917C15.1667 14.7812 15.9689 15.5833 16.9584 15.5833H18.1529C19.1424 15.5833 19.9445 14.7812 19.9445 13.7917V13.7917Z" fill="#1730BD"/>
<path d="M27.1112 13.7917C27.1112 12.8022 26.309 12 25.3195 12H24.1251C23.1356 12 22.3334 12.8022 22.3334 13.7917V13.7917C22.3334 14.7812 23.1356 15.5833 24.1251 15.5833H25.3195C26.309 15.5833 27.1112 14.7812 27.1112 13.7917V13.7917Z" fill="#1730BD"/>
</svg>
