<svg width="70" height="58" viewBox="0 0 70 58" fill="none" xmlns="http://www.w3.org/2000/svg">
<path d="M33.5837 28.5104H21.4211V24.4552H32.109C33.2754 24.4552 34.2211 23.5096 34.2211 22.3431C34.2211 21.1766 33.2754 20.231 32.109 20.231H21.4211V14.8105C21.4211 12.4851 19.5359 10.6 17.2105 10.6C14.8851 10.6 13 12.4851 13 14.8105V27.6069C13 32.0252 16.5817 35.6069 21 35.6069H31.5426C33.2074 35.6069 34.7533 36.4695 35.6276 37.8863L41.6959 47.7206C42.4007 48.863 43.9055 49.2051 45.035 48.4799L49.7126 45.4765C50.6637 44.8658 50.9821 43.6244 50.4422 42.6314C49.8605 41.5615 48.5089 41.185 47.4579 41.8001L45.3368 43.0414L37.6525 30.7638C36.775 29.3618 35.2376 28.5104 33.5837 28.5104Z" stroke="white" stroke-width="1.5"/>
<circle cx="17" cy="5.00001" r="4.05" stroke="white" stroke-width="1.5"/>
<path d="M1 39.4457C1 29.4044 7.27909 24.2515 10.4186 22.6V27.5546C10.3065 27.6647 10.1495 28.0831 9.07311 28.8759C7.9967 29.6686 6.83058 31.4082 6.38207 32.1789C5.03656 34.2709 3.28738 40.0403 7.05483 46.3822C10.8223 52.7241 17.3705 53.649 20.1736 53.3186C21.407 53.3186 24.586 52.9637 28.2467 50.6762C31.9469 48.364 34.9743 43.4094 34.9743 40.1063L36.9926 44.7306C37.1047 45.8317 35.9835 49.0907 30.6014 53.3186C25.2193 57.5466 17.5947 57.2823 14.4552 56.6217C9.97012 55.3005 1 49.4871 1 39.4457Z" stroke="white" stroke-width="1.5"/>
<path d="M25.8 13.6588L31.3111 6.74116L33.3778 7.7294L38.5444 1.79999L50.6 18.6" stroke="white" stroke-width="1.5"/>
<path d="M46.6 13.2039L51.2806 8.39999L51.9121 8.96862L53.6209 7.39999L69 19.4" stroke="white" stroke-width="1.5"/>
</svg>
