<svg width="19" height="20" viewBox="0 0 19 20" fill="none" xmlns="http://www.w3.org/2000/svg">
<path d="M18.6748 18.6859C18.4653 18.8948 18.1815 19.0121 17.8857 19.0121C17.5899 19.0121 17.3061 18.8948 17.0966 18.6859L13.4576 15.0122C11.9554 16.1511 10.1123 16.7484 8.22773 16.7072C6.34315 16.666 4.52788 15.9887 3.07695 14.7853C1.62602 13.5819 0.624698 11.9232 0.235721 10.0787C-0.153257 8.23427 0.0929719 6.31247 0.934391 4.62565C1.77581 2.93883 3.16296 1.58615 4.87041 0.787424C6.57787 -0.011299 8.50525 -0.209108 10.3393 0.226142C12.1734 0.661393 13.8064 1.70412 14.9729 3.18486C16.1395 4.66561 16.7709 6.49733 16.7647 8.38236C16.7588 10.2102 16.1503 11.985 15.0335 13.4319L18.6748 17.1078C18.8836 17.3173 19.0009 17.6011 19.0009 17.8969C19.0009 18.1927 18.8836 18.4764 18.6748 18.6859ZM8.38234 2.2353C7.16657 2.2353 5.9781 2.59582 4.96722 3.27126C3.95634 3.94671 3.16846 4.90675 2.7032 6.02998C2.23794 7.15321 2.11621 8.38918 2.3534 9.58159C2.59058 10.774 3.17603 11.8693 4.03572 12.729C4.8954 13.5887 5.9907 14.1741 7.18311 14.4113C8.37552 14.6485 9.61149 14.5268 10.7347 14.0615C11.8579 13.5962 12.818 12.8084 13.4934 11.7975C14.1689 10.7866 14.5294 9.59813 14.5294 8.38236C14.5294 6.75205 13.8818 5.18853 12.729 4.03573C11.5762 2.88293 10.0126 2.2353 8.38234 2.2353Z" fill="white"/>
</svg>
