<svg width="43" height="43" viewBox="0 0 43 43" fill="none" xmlns="http://www.w3.org/2000/svg">
<g clip-path="url(#clip0_2_1485)">
<g clip-path="url(#clip1_2_1485)">
<path fill-rule="evenodd" clip-rule="evenodd" d="M25.98 26.1001C25.9617 26.2991 25.8841 26.4881 25.7574 26.6426C25.6307 26.7972 25.4606 26.9102 25.269 26.9672C25.0774 27.0241 24.8733 27.0224 24.6827 26.9621C24.4922 26.9018 24.3239 26.7859 24.1999 26.6292C23.1099 25.7622 21.41 24.5141 21.41 24.5141C21.41 24.5141 20.1799 26.6811 19.9599 26.9031C19.8873 26.9643 19.8028 27.0096 19.7116 27.0363C19.6205 27.0629 19.5247 27.0702 19.4305 27.0577C19.3364 27.0452 19.2459 27.0131 19.1649 26.9636C19.0839 26.9141 19.014 26.8482 18.9599 26.7701C18.9487 26.736 18.9354 26.7026 18.92 26.6701L19.61 23.2181L24.53 18.3851L17.8199 22.2141C17.8199 22.2141 14.7899 21.3081 14.3399 21.1311C14.2239 21.0677 14.1281 20.9727 14.0638 20.8571C13.9995 20.7415 13.9693 20.6101 13.9767 20.478C13.984 20.346 14.0285 20.2187 14.1052 20.1109C14.1819 20.0031 14.2876 19.9193 14.41 19.8691C15.05 19.5431 26.3399 15.2311 26.7199 15.1201C27.0999 15.0091 28.1 14.7201 27.99 15.6931C27.88 16.6661 26.09 25.5661 25.98 26.1001Z" fill="#1730BD"/>
</g>
</g>
<rect x="1" y="1" width="41" height="41" rx="14" stroke="#1730BD" stroke-width="2"/>
<defs>
<clipPath id="clip0_2_1485">
<rect width="43" height="43" rx="15" fill="white"/>
</clipPath>
<clipPath id="clip1_2_1485">
<rect width="513" height="780" fill="white" transform="translate(-329 -517)"/>
</clipPath>
</defs>
</svg>
