<svg width="43" height="43" viewBox="0 0 43 43" fill="none" xmlns="http://www.w3.org/2000/svg">
<g clip-path="url(#clip0_2_1070)">
<path fill-rule="evenodd" clip-rule="evenodd" d="M22.994 17.7704V21.0274C22.9905 21.0812 22.9998 21.135 23.0212 21.1845C23.0426 21.234 23.0754 21.2777 23.1171 21.312C23.1587 21.3463 23.2078 21.3702 23.2605 21.3817C23.3132 21.3933 23.3678 21.3921 23.42 21.3784C23.72 21.3574 24.398 18.5784 24.699 17.9724C24.8587 17.6307 25.1154 17.3435 25.437 17.1464C25.5383 17.0546 25.6676 16.9996 25.804 16.9904H28.682C28.7597 17.0035 28.8328 17.0361 28.8943 17.0852C28.9559 17.1343 29.0039 17.1983 29.0339 17.2711C29.0639 17.344 29.0749 17.4232 29.0659 17.5015C29.0568 17.5797 29.0279 17.6544 28.982 17.7184C28.757 18.2184 26.827 21.3284 26.727 21.4544C26.6066 21.617 26.5255 21.8052 26.49 22.0044C26.5293 22.2398 26.638 22.458 26.802 22.6314C27.002 22.8574 28.618 24.6314 28.769 24.7864C28.9113 24.9498 29.0065 25.1489 29.044 25.3624C29.008 25.5443 28.9069 25.707 28.7596 25.8198C28.6124 25.9326 28.4291 25.9879 28.244 25.9754C27.618 25.9754 26.078 25.9754 25.902 25.9754C25.5502 25.8523 25.2266 25.6602 24.95 25.4104C24.725 25.2104 23.891 24.2584 23.766 24.1334C23.7237 24.0825 23.6696 24.0427 23.6085 24.0174C23.5473 23.9921 23.4809 23.9822 23.415 23.9884C23.265 23.9884 22.98 24.0034 22.993 24.5734C23.0287 24.9683 22.9459 25.3648 22.755 25.7124C22.6574 25.806 22.5417 25.8787 22.4149 25.926C22.2882 25.9733 22.1531 25.9942 22.018 25.9874C20.9951 26.0494 19.9779 25.7956 19.104 25.2604C17.53 24.2834 15.738 21.6724 14.904 20.0064C14.4065 19.1792 14.0991 18.2519 14.004 17.2914C14.054 17.1154 14.054 16.9914 14.23 16.9914C14.406 16.9914 16.619 16.9914 16.83 16.9914C16.9763 17.0635 17.0983 17.1768 17.181 17.3174C17.256 17.4174 17.828 19.1294 18.003 19.4304C18.178 19.7314 19.041 21.3804 19.509 21.3804C19.6644 21.3499 19.8014 21.2592 19.8902 21.1281C19.979 20.9969 20.0123 20.836 19.983 20.6804C19.983 20.2804 19.983 18.7014 19.983 18.5004C19.7927 18.057 19.4441 17.7004 19.005 17.5004C19.1143 17.3551 19.2538 17.2352 19.4138 17.1489C19.5738 17.0626 19.7506 17.012 19.932 17.0004C20.532 16.9754 22.037 16.9754 22.362 17.0244C22.5364 17.0584 22.6941 17.1509 22.809 17.2865C22.9238 17.4221 22.9891 17.5927 22.994 17.7704Z" fill="#1730BD"/>
</g>
<rect x="1" y="1" width="41" height="41" rx="14" stroke="#1730BD" stroke-width="2"/>
<defs>
<clipPath id="clip0_2_1070">
<rect width="43" height="43" rx="15" fill="white"/>
</clipPath>
</defs>
</svg>
