<svg width="43" height="43" viewBox="0 0 43 43" fill="none" xmlns="http://www.w3.org/2000/svg">
<g clip-path="url(#clip0_2_1900)">
<g clip-path="url(#clip1_2_1900)">
<path fill-rule="evenodd" clip-rule="evenodd" d="M25 28H18C16.8954 27.954 15.8542 27.4719 15.1044 26.6595C14.3546 25.8472 13.9575 24.7707 14 23.666V19.333C13.958 18.2286 14.3554 17.1524 15.1051 16.3403C15.8548 15.5282 16.8957 15.0463 18 15H25C26.1044 15.0463 27.1455 15.5284 27.8952 16.3407C28.645 17.153 29.0422 18.2294 29 19.334V23.667C29.0422 24.7715 28.6449 25.8477 27.8952 26.6599C27.1454 27.4721 26.1043 27.954 25 28ZM27 19.255C27.0306 18.6925 26.8375 18.1408 26.4628 17.7202C26.0881 17.2996 25.5622 17.0443 25 17.01H18C17.4377 17.0443 16.9118 17.2996 16.5372 17.7202C16.1625 18.1408 15.9694 18.6925 16 19.255V23.744C15.9694 24.3065 16.1625 24.8582 16.5372 25.2788C16.9118 25.6994 17.4377 25.9547 18 25.989H25C25.5622 25.9547 26.0881 25.6994 26.4628 25.2788C26.8375 24.8582 27.0306 24.3065 27 23.744V19.255ZM20 18.987L24 21.5L20 24.011V18.987Z" fill="#1730BD"/>
</g>
</g>
<rect x="1" y="1" width="41" height="41" rx="14" stroke="#1730BD" stroke-width="2"/>
<defs>
<clipPath id="clip0_2_1900">
<rect width="43" height="43" rx="15" fill="white"/>
</clipPath>
<clipPath id="clip1_2_1900">
<rect width="513" height="780" fill="white" transform="translate(-94 -517)"/>
</clipPath>
</defs>
</svg>
